<svg width="765" height="716" viewBox="0 0 765 716" fill="none" xmlns="http://www.w3.org/2000/svg">
<path d="M442.297 419.71C442.314 420.027 442.218 420.342 442.026 420.598C441.834 420.854 441.558 421.036 441.247 421.111C438.012 422.363 435.005 424.113 431.812 425.468C430.09 426.185 428.429 427.041 426.843 428.025C425.589 428.817 424.102 429.093 422.814 429.865C421.427 430.693 419.835 431.121 418.38 431.859C417.153 432.481 415.736 432.65 414.458 433.248C412.589 434.097 410.679 434.851 408.737 435.509C407.541 436.081 406.253 436.431 404.938 436.543C404.582 436.536 404.385 436.762 404.112 436.858C402.952 437.306 401.767 437.684 400.563 437.988C397.998 438.562 395.486 439.381 392.917 439.915C391.052 440.301 389.219 440.797 387.369 441.238C385.59 441.662 383.802 442.05 382.006 442.404C377.806 443.247 373.563 443.845 369.299 444.194C365.959 444.426 362.611 444.47 359.271 444.326C356.558 444.319 353.85 444.131 351.167 443.765C349.037 443.402 346.836 443.347 344.779 442.8C342.839 442.284 340.856 441.87 338.917 441.406C334.424 440.332 329.99 439.082 325.616 437.656C323.04 436.819 320.466 435.921 317.885 435.128C314.856 434.198 311.962 432.93 308.939 431.991C307.168 431.439 305.412 430.634 303.653 429.96C301.951 429.308 300.353 428.421 298.608 427.876C296.888 427.272 295.201 426.58 293.554 425.805C291.998 425.135 290.174 424.781 288.905 423.484C287.414 423.701 286.456 422.517 285.237 422.041C284.018 421.566 282.819 421.002 281.596 420.61C280.335 420.206 279.062 419.759 277.827 419.323C275.319 418.439 272.738 417.801 270.243 416.928C268.72 416.396 267.142 416.361 265.613 415.975C262.681 415.25 259.681 414.82 256.655 414.689C255.439 414.66 254.236 414.447 253.089 414.057C252.227 413.74 251.479 414.316 250.624 414.155C249.241 413.893 247.812 413.865 246.408 413.711C246.194 413.649 245.965 413.646 245.747 413.701C245.528 413.756 245.328 413.868 245.166 414.025L244.311 413.183C243.807 413.131 244.21 413.557 243.957 413.714C243.374 413.705 242.74 413.845 242.148 413.452C241.593 413.081 241.059 413.662 240.434 413.519C239.073 413.212 237.554 414.111 236.26 413.081C234.955 413.562 233.603 413.25 232.275 413.348C231.585 413.437 230.891 413.261 230.334 412.855C229.839 412.464 229.192 413.521 228.715 412.733C226.445 413.363 224.333 412.351 222.22 411.977C218.83 411.376 215.371 411.031 212.068 409.85C210.415 409.26 208.519 409.127 206.824 408.557C203.012 407.277 199.104 406.256 195.452 404.517C193.944 403.799 192.271 403.417 190.769 402.683C187.586 401.13 184.398 399.58 181.343 397.784C180.714 397.536 180.171 397.116 179.773 396.571C179.383 395.873 178.494 396.242 177.867 395.842C177.121 395.372 176.681 394.583 175.786 394.215C175.293 394.012 174.726 393.397 174.155 393.16C172.298 392.389 171.126 390.644 169.251 389.917C168.607 389.533 168.059 389.01 167.646 388.385C166.015 386.625 163.654 385.716 162.268 383.733C161.524 382.701 160.531 381.873 159.379 381.325C159.014 381.141 158.624 380.968 158.534 380.647C158.219 379.527 157.196 379.024 156.501 378.263C155.757 377.449 154.734 376.906 154.062 375.966C153.482 374.946 152.724 374.038 151.823 373.286C150.144 372.202 149.149 370.577 147.943 369.121C147.34 368.394 146.366 367.859 146.455 366.63C146.503 365.983 145.111 366.603 145.272 365.558C145.368 364.939 144.963 364.656 144.399 364.416C143.884 364.197 144.177 363.216 143.57 363.093C142.964 362.97 142.25 362.574 142.366 362.26C142.653 361.473 141.473 361.588 141.758 360.96C141.764 360.924 141.762 360.887 141.751 360.852C141.741 360.817 141.722 360.785 141.697 360.758C140.194 359.307 139.677 357.199 138.24 355.666C137.415 354.708 136.78 353.601 136.371 352.403C135.916 351.321 135.372 350.281 134.744 349.291C133.737 347.565 133.301 345.605 132.284 343.906C132.009 343.445 132.949 342.515 131.726 342.413C131.986 341.648 131.223 341.352 131.025 340.811C130.942 340.318 130.935 339.815 131.005 339.318C130.308 338.423 129.835 337.374 129.624 336.256C128.926 334.049 128.37 331.798 127.958 329.517C127.416 326.389 126.716 323.245 127.165 320.022C127.258 319.359 126.591 319.178 126.612 318.59C126.719 315.171 126.475 311.757 127.205 308.336C127.51 306.904 127.304 305.316 127.606 303.845C128.211 300.892 128.414 297.887 129.459 294.977C130.079 293.255 130.448 291.374 131.039 289.596C132.16 285.873 133.725 282.293 135.7 278.931C137.251 276.444 138.749 273.924 140.501 271.555C141.104 270.74 141.955 270.168 142.436 269.367C142.904 268.586 143.527 267.908 144.267 267.375C144.844 266.948 144.739 266.129 145.447 265.737C145.778 265.614 146.073 265.409 146.303 265.141C146.533 264.873 146.691 264.551 146.762 264.207C146.819 263.806 147.542 263.488 147.968 263.138C148.536 262.587 149.159 262.096 149.827 261.672C150.391 261.38 150.174 260.283 151.133 260.517C151.14 259.56 152.027 259.317 152.568 258.804C153.084 258.316 153.665 257.897 154.218 257.447L156.06 255.948C156.669 255.579 157.217 255.116 157.683 254.577C158.358 253.474 159.535 252.937 160.333 251.951C161.308 250.912 162.408 249.995 163.605 249.222C164.601 248.48 164.979 247.229 166.079 246.545C167.2 245.948 168.188 245.126 168.979 244.133C169.738 242.996 171.073 242.429 171.624 241.335C172.287 240.033 173.665 239.646 174.39 238.585C175.97 236.273 178.226 234.531 179.825 232.294C181.843 229.473 184.195 226.914 186.086 223.981C187.316 222.076 188.49 220.123 189.722 218.215C190.877 216.264 191.866 214.22 192.678 212.106C193.761 209.494 194.632 206.802 195.283 204.056C195.97 201.299 196.231 198.476 196.871 195.721C197.163 194.464 197.218 193.185 197.55 191.927C197.908 190.573 197.739 189.085 198.093 187.728C198.979 184.33 198.925 180.76 200.197 177.443C200.559 173.041 202.387 168.976 203.334 164.706C203.805 162.578 204.87 160.579 205.633 158.506C206.904 155.069 208.51 151.778 210.086 148.471C211.556 145.45 213.222 142.525 215.074 139.717C216.39 137.685 217.804 135.715 219.081 133.661C219.6 132.829 220.727 132.491 220.854 131.382C222.632 130.045 223.466 127.843 225.3 126.557C225.848 125.182 227.08 124.445 228.188 123.647C229.034 123.04 229.133 121.928 230.096 121.397C231.036 120.964 231.849 120.292 232.451 119.45C233.304 117.938 234.718 117.141 235.943 116.11C238.79 113.715 241.677 111.368 244.605 109.069C245.565 108.317 246.294 107.202 247.626 106.951C248.794 106.731 249.269 105.326 250.54 105.205C251.004 105.16 250.737 104.441 251.234 104.218C252.205 103.785 252.686 102.637 253.935 102.497C254.902 102.388 255.293 101.04 256.485 101.077C257.206 101.099 256.81 99.3814 258.039 99.9127C258.941 98.9234 260.193 98.4919 261.315 97.8571C262.244 97.3304 262.779 96.2746 263.998 96.0931C265.036 95.9386 265.497 94.4864 266.759 94.632C267.758 93.3761 269.427 93.1701 270.617 92.1566C271.571 91.4265 272.617 90.8259 273.727 90.3708C275.405 89.5856 277.06 88.7512 278.69 87.8817C279.283 87.5756 279.891 87.3021 280.513 87.0625C280.856 86.9239 281.228 87.1129 281.588 86.8144C283.869 84.9261 286.684 84.0303 289.357 82.9773C290.953 82.2345 292.61 81.6336 294.309 81.1817C294.789 81.082 295.39 80.5682 295.94 80.5796C297.559 80.6118 298.935 79.8202 300.36 79.2904C301.112 78.9895 301.902 78.7985 302.706 78.7233C302.859 78.7096 303.077 78.8244 303.167 78.7537C304.831 77.4416 306.916 77.5018 308.813 76.9815C310.649 76.4775 312.573 76.3129 314.39 75.7641C318.054 74.6577 321.865 74.3379 325.556 73.3795C326.677 73.1426 327.811 72.9736 328.951 72.8733C329.726 72.575 329.33 71.9894 329.876 71.6847C330.365 71.4298 330.879 71.7074 331.477 72.1532C332.62 70.8115 334.319 71.1009 335.807 70.8732C339.324 70.3356 342.87 69.9488 346.418 69.6997C348.754 69.4716 351.1 69.385 353.442 69.4404C360.947 69.8191 368.421 70.4867 375.869 71.358C378.707 71.6897 381.565 72.0106 384.38 72.4925C386.773 72.9021 389.19 73.2981 391.54 73.8609C397.034 75.1679 402.531 76.4813 407.918 78.2025C412.037 79.5195 416.052 81.0773 420.077 82.6279C422.66 83.6251 425.178 84.726 427.661 85.9317C431.63 87.8588 435.553 89.8734 439.429 91.9755C443.075 93.9599 446.212 96.6911 449.957 98.473C451.57 100.446 454.219 101.154 455.779 103.19C457.049 103.555 457.792 104.671 458.72 105.446C459.678 106.245 460.887 106.821 461.577 107.991C461.89 108.524 462.765 108.526 463.142 109.182C463.273 109.482 463.47 109.748 463.718 109.961C463.966 110.174 464.259 110.33 464.576 110.416C464.356 111.328 465.46 110.891 465.679 111.51C465.92 112.18 466.378 112.748 466.982 113.124C468.389 113.896 468.978 115.517 470.211 116.264C471.552 117.073 472.068 118.529 473.245 119.303C474.685 120.256 474.944 122.029 476.208 123.057C476.318 123.148 476.212 123.496 476.209 123.73C476.536 123.907 476.723 123.534 477.128 123.479C477.157 124.088 477.271 124.688 477.465 125.264C477.86 125.89 478.319 126.474 478.835 127.004L480.754 126.995C481.167 127.864 481.88 128.223 482.056 129.094C482.134 129.474 482.934 129.914 483.408 130.319C484.029 130.851 483.76 131.985 484.429 132.178C485.139 132.477 485.722 133.008 486.084 133.686C490.392 138.934 494.677 144.201 498.941 149.486C499.4 150.05 500.194 150.481 499.979 151.43C501.352 151.273 500.691 152.675 501.294 153.17C501.796 153.713 502.169 154.361 502.389 155.068C502.919 156.238 504.003 157.146 504.808 158.2C505.47 158.826 505.939 159.627 506.162 160.513C506.276 161.343 507.157 161.917 507.553 162.781C507.976 163.897 508.546 164.95 509.25 165.911C509.841 166.493 510.253 167.232 510.44 168.042C510.556 168.723 511.63 169.066 511.375 170.018C512.454 171.194 512.827 172.738 513.52 174.118C515.161 177.443 516.6 180.865 517.828 184.367C518.876 187.297 519.973 190.209 520.991 193.149C521.317 194.102 521.619 195.08 521.877 196.05C522.903 199.52 523.735 203.045 524.37 206.612C524.844 209.792 525.466 212.954 525.801 216.167C525.98 217.876 526.513 219.573 526.773 221.298C527.389 225.367 527.894 229.447 528.188 233.556C528.596 237.147 528.652 240.775 528.357 244.388C528.241 245.342 528.399 246.323 528.343 247.287C528.163 248.372 528.061 249.468 528.038 250.565C528.161 251.958 527.865 253.322 527.926 254.681C527.973 255.735 526.869 256.51 527.492 257.719C527.944 258.6 526.714 259.637 527.219 260.696C526.325 261.92 527.107 263.373 526.528 264.742C525.969 266.065 526.116 267.676 525.953 269.161C525.876 270.655 525.7 272.144 525.424 273.617C524.763 276.273 524.776 279.015 524.179 281.648C523.609 284.158 523.585 286.795 522.5 289.175C522.243 289.737 522.727 289.969 522.649 290.432C522.569 290.915 522.156 291.192 522.13 291.663C521.959 293.567 521.637 295.456 521.165 297.312C520.583 299.965 519.924 302.61 519.365 305.26C518.438 309.346 517.296 313.384 515.944 317.357C515.104 319.958 514.172 322.53 513.269 325.108C512.218 328.103 511.19 331.11 510.078 334.08C509.227 336.346 508.226 338.554 507.349 340.811C506.652 342.595 506.028 344.413 505.406 346.227C504.545 348.735 503.594 351.218 502.72 353.713C501.464 357.241 500.012 360.698 498.371 364.07C497.59 365.801 496.699 367.483 495.704 369.104C495.028 370.143 494.429 371.228 493.91 372.352C492.892 374.603 491.341 376.452 490.025 378.479C489.56 379.189 488.95 379.739 488.47 380.386C488.02 380.992 487.529 381.535 487.054 382.111C485.633 383.833 483.895 385.299 482.767 387.26C482.695 387.393 482.593 387.507 482.47 387.594C480.356 388.954 479.111 391.226 477.045 392.657C475.205 393.933 474.092 396.038 472.134 397.22C471.643 398.65 470.13 399.113 469.291 400.176C467.027 403.041 463.95 404.956 461.227 407.279C458.52 409.592 455.706 411.782 452.952 414.041C450.926 415.515 448.784 416.823 446.549 417.952C445.993 418.142 445.463 418.403 444.972 418.727C444.617 419.068 444.196 419.331 443.735 419.5C443.274 419.669 442.785 419.741 442.297 419.71ZM258.949 410.515C258.941 410.705 258.97 410.895 259.035 411.073C259.1 411.251 259.2 411.414 259.328 411.553C259.457 411.691 259.612 411.803 259.785 411.881C259.958 411.959 260.145 412.002 260.336 412.008L261.595 410.984C262.542 412.036 263.735 410.655 265.003 411.301C266.045 411.832 267.432 411.702 268.651 411.863C268.919 411.355 268.14 411.036 268.556 410.481C267.514 410.317 266.347 410.559 265.746 409.426L264.875 410.134C264.083 409.703 263.184 409.498 262.276 409.542C261.428 409.458 260.667 408.608 259.735 409.295C259.115 408.36 258.125 409.228 257.314 408.835C256.499 408.58 255.644 408.463 254.786 408.489C253.881 408.402 252.934 408.558 252.083 408.464C251.229 408.481 250.376 408.429 249.532 408.308C248.671 408.068 247.826 407.534 246.92 407.845C246.481 407.975 246.02 408.009 245.57 407.945C245.119 407.88 244.689 407.72 244.309 407.473C243.357 408.713 242.535 407.825 241.704 407.134L241.631 407.797C241.17 408.135 241.126 407.37 240.727 407.472C239.639 407.75 238.476 408.144 237.426 407.784C236.248 407.38 235.085 407.65 233.923 407.535C229.362 407.089 224.816 406.554 220.291 405.863C219.982 405.816 219.579 405.903 219.374 405.738C218.152 404.754 216.633 404.991 215.246 404.681C213.731 404.486 212.229 404.214 210.744 403.867C208.702 403.086 206.564 402.571 204.383 402.334C204.278 402.022 204.536 401.78 204.364 401.704C203.146 401.539 201.794 401.739 201.058 401.162C200.066 400.385 199.114 400.689 197.872 400.282C199.457 401.856 199.457 401.856 201.116 402.035C201.144 402.963 202.502 402.844 202.581 403.891C203.376 403.504 204.19 402.66 204.948 403.857C205.006 403.958 205.095 404.038 205.203 404.083C205.311 404.128 205.432 404.136 205.546 404.107C207.096 403.69 208.389 404.6 209.781 404.913C210.881 405.159 212.164 405.343 212.678 406.495C213.739 406.142 214.888 406.193 215.902 406.639L215.839 407.486L217.767 406.968C218.338 407.523 219.038 407.929 219.806 408.151L220.536 407.557C221.096 407.962 221.789 408.143 222.483 408.068C223.103 408.092 223.554 408.675 224.349 408.32C224.913 408.068 225.73 408.393 226.434 408.461C226.856 408.796 227.037 409.427 227.746 409.642L227.33 408.32C228.154 409.266 228.932 408.633 229.686 408.751C230.924 408.95 232.186 409.011 233.438 409.129C233.935 408.223 234.401 409.649 235.002 409.103C235.7 408.468 235.693 410.013 236.379 409.678L236.428 409.462L240.93 409.889C241.337 409.869 240.662 410.497 241.242 410.504C242.179 410.588 241.291 409.09 242.362 409.312C242.633 409.493 242.167 409.886 242.623 410.026C243.059 409.967 243.243 409.3 243.817 409.456C243.729 409.837 243.641 410.227 243.84 410.344C244.34 410.602 244.5 410.392 244.675 410.246C245.447 409.596 246.257 409.189 247.237 409.78C248.002 409.178 248.596 410.024 249.311 410.001C250.091 409.976 250.896 410.292 251.654 410.172C254.09 409.787 256.421 410.504 258.949 410.515ZM378.226 421.798C376.339 421.05 374.558 421.487 372.85 421.343C371.344 421.274 369.834 421.293 368.327 421.399C366.7 421.455 365.104 421.191 363.505 421.251C361.149 421.4 358.788 421.386 356.439 421.21C355.815 421.148 355.136 420.912 354.578 421.081C353.072 421.532 351.661 420.982 350.211 420.926C348.761 420.871 347.306 421.22 345.849 420.897C345.465 420.812 345.255 420.495 344.677 420.56C342.311 420.818 339.952 420.05 337.555 420.414C336.852 419.761 336.016 420.357 335.248 420.21C334.481 420.063 333.663 420.042 332.798 419.959C333.125 421.145 334.045 420.685 334.619 420.894C337.142 421.814 339.757 422.474 342.421 422.865C347.63 423.569 352.895 423.838 358.16 423.669C359.467 423.639 360.76 423.813 362.043 423.727C366.422 423.436 370.797 423.072 375.167 422.636C376.232 422.577 377.275 422.291 378.226 421.798ZM399.048 431.635L398.047 431.563C398.065 432.2 397.599 432.627 397.429 433.159C396.54 433.504 396.579 431.838 395.628 432.357C395.43 432.75 396.12 432.987 395.77 433.401C395.226 434.026 394.412 433.897 393.743 434.14C393.427 433.912 393.38 433.409 392.888 433.397C392.742 433.997 392.552 434.573 391.811 434.638C390.342 434.765 388.949 435.602 387.424 435.219C386.871 435.08 386.432 435.68 385.882 435.417C385.213 436.376 384.133 436.218 383.201 436.375C380.154 436.887 377.108 437.443 374.04 437.779C369.968 438.224 365.879 438.672 361.798 438.741C358.981 438.79 356.135 439.104 353.32 438.672C352.879 438.606 352.603 438.78 352.611 439.165C363.781 441.054 374.769 439.594 385.712 437.046C385.655 437.467 385.531 437.867 385.997 438.105C386.83 437.841 387.681 437.642 388.543 437.508C388.757 437.524 388.973 437.497 389.178 437.429C389.383 437.361 389.572 437.252 389.736 437.111C389.899 436.969 390.033 436.797 390.13 436.604C390.226 436.411 390.284 436.201 390.298 435.987L392.924 435.448C393.193 435.719 393.443 436.147 393.616 436.116C394.849 435.895 396.244 436.056 397.034 434.707C397.639 435.564 398.339 434.821 398.941 434.981C399.321 434.177 400.64 434.963 400.88 433.736C401.05 432.861 401.789 432.681 402.581 433.155L402.522 433.694C403.028 433.177 403.909 433.811 404.269 433.072C404.342 432.518 403.428 433.079 403.708 432.311C404.983 431.833 406.293 431.452 407.624 431.172C408.004 431.11 408.366 430.963 408.684 430.743C409.002 430.522 409.267 430.234 409.46 429.9C408.372 430.082 407.511 430.632 406.611 430.054C406.558 430.515 406.594 430.971 405.862 430.974C405.197 430.976 404.927 430.553 404.558 430.168C404.535 430.14 404.503 430.12 404.468 430.11C404.432 430.1 404.395 430.102 404.36 430.114C404.325 430.127 404.295 430.149 404.273 430.179C404.251 430.209 404.239 430.245 404.238 430.281L404.571 431.228C402.676 431.616 400.899 432.271 398.981 432.333L399.048 431.635ZM445.213 97.3168C445.199 97.0836 445.118 96.8604 444.979 96.6734C444.841 96.4864 444.652 96.3435 444.433 96.2614C442.612 95.3701 440.915 94.2451 439.186 93.217C436.068 91.3654 432.846 89.7366 429.594 88.1633C424.047 85.4567 418.356 83.0461 412.546 80.9415C410.059 80.0499 407.555 79.1917 405.017 78.4507C402.302 77.6559 399.523 77.0718 396.803 76.2895C394.192 75.536 391.504 75.1657 388.868 74.5419C386.656 74.018 384.34 73.9897 382.167 73.251C381.708 73.1418 381.237 73.0928 380.764 73.1053C380.3 73.0776 379.816 72.9282 379.397 73.0553C379.394 73.1489 379.412 73.2417 379.449 73.3273C379.485 73.413 379.54 73.4895 379.609 73.5518C379.678 73.6141 379.76 73.6606 379.85 73.6883C379.939 73.7159 380.033 73.7241 380.127 73.7121C381.576 73.8278 383.007 74.102 384.392 74.5296C387.658 75.4262 391.004 75.9263 394.284 76.7253C396.037 77.1524 397.874 77.4174 399.539 77.9842C403.292 79.2669 407.129 80.2843 410.879 81.5864C415.92 83.3385 420.794 85.4628 425.768 87.3571C426.948 87.8063 427.886 88.6434 429.029 89.0732C431.558 89.9828 433.99 91.1329 436.292 92.5077C438.019 93.5742 439.937 94.2542 441.622 95.4408C442.705 96.2597 443.918 96.8934 445.213 97.3168ZM387.048 119.632C385.827 119.394 384.654 118.966 383.571 118.365C382.218 117.806 380.778 117.468 379.409 116.947C378.89 116.749 378.251 117.462 377.864 116.704C375.306 117.18 372.9 116.537 370.45 115.882L370.381 115.001L369.458 114.89L369.351 115.55C368.723 115.661 368.793 114.618 368.085 114.844L368.356 115.68C367.187 116.534 367.183 116.539 366.132 115.707C365.925 115.543 365.748 115.486 365.532 115.668C365.19 115.865 365.321 116.219 365.242 116.498C364.659 116.64 363.852 115.94 363.511 116.833C364.831 117.683 366.328 117.512 367.709 117.818C369.313 118.173 370.886 118.647 372.528 118.9C374.113 119.145 375.706 119.414 377.266 119.726C379.003 120.2 380.769 120.572 382.552 120.841C383.178 120.894 383.916 120.774 384.4 121.065C385.009 121.365 385.68 121.525 386.363 121.534C387.075 121.625 387.794 121.676 388.468 121.74C388.539 120.5 386.626 120.976 387.049 119.633L387.048 119.632ZM311.289 305.169C310.538 304.506 309.946 305.313 309.223 305.178C308.478 305.068 307.72 305.056 306.969 305.143C304.04 305.381 301.093 305.365 298.153 305.418C296.033 305.455 293.887 305.437 291.801 305.598C289.716 305.759 287.612 305.632 285.538 305.905C283.567 306.165 281.535 305.601 279.616 306.492C279.698 307.85 280.23 308.51 281.627 308.509C283.645 308.505 285.668 308.35 287.686 308.22C289.092 308.128 290.497 307.859 291.9 307.862C294.652 307.781 297.398 307.528 300.122 307.103C303.415 306.698 306.71 306.28 310.007 305.914C310.266 305.911 310.52 305.842 310.745 305.711C310.97 305.58 311.158 305.394 311.289 305.169ZM495.92 321.581C495.605 322.087 495.375 322.64 495.24 323.218C495.219 323.515 495.49 323.743 495.184 324.168C493.916 325.872 492.739 327.642 491.661 329.471C491.127 330.411 490.326 331.221 490.132 332.375C489.617 335.467 489.026 338.548 488.456 341.631C488.403 341.92 488.518 342.245 488.212 342.493C487.786 342.84 487.957 343.365 487.907 343.804C487.864 344.188 487.618 344.63 488.038 345.207C489.624 342.104 490.991 338.896 492.129 335.608C493.243 332.561 494.307 329.496 495.321 326.412C495.778 325.01 496.382 323.677 496.946 322.323C497.021 322.151 496.966 321.923 496.972 321.803L495.92 321.581ZM420.697 188.116C419.344 189.123 417.628 189.083 416.169 189.782C414.379 190.64 412.523 191.347 410.714 192.167C409.171 192.869 407.6 193.483 406.102 194.31C404.563 195.155 402.854 195.659 401.256 196.426C399.602 197.219 397.965 198.091 396.241 198.718C395.264 199.032 394.31 199.412 393.384 199.855C392.363 200.441 391.279 200.909 390.154 201.249C389.015 201.542 388.199 202.776 386.814 202.354C386.48 202.253 386.156 202.689 385.942 203.007C385.836 203.166 385.783 203.543 385.746 203.538C384.393 203.366 383.544 204.526 382.236 204.829C382.586 205.121 382.68 205.375 383.229 205.159C385.743 204.176 388.319 203.349 390.824 202.343C391.704 201.989 392.732 201.854 393.413 201.062C395.569 200.741 397.405 199.518 399.268 198.575C401.186 197.603 403.182 196.761 405.116 195.88C409.391 193.93 413.579 191.761 417.99 190.118C418.706 189.189 420.248 189.524 420.697 188.116ZM476.723 161.683C477.166 161.101 477.431 160.759 477.695 160.416C478.529 161.344 479.296 159.73 480.31 160.445C481.172 161.375 481.948 162.694 483.334 163.453C483.974 163.803 484.118 163.606 484.281 163.066C483.554 162.212 483.015 161.165 481.898 160.925C481.719 160.368 482.423 160.266 482.228 159.787C481.313 158.663 480.582 157.199 479.391 156.452C478.075 155.627 477.374 154.407 476.413 153.362C475.415 152.274 474.531 151.081 473.597 149.934C473.352 149.632 473.119 149.319 472.854 149.035C472.736 148.951 472.603 148.89 472.462 148.855C472.166 149.085 471.78 149.223 471.654 149.629C472.946 150.355 472.872 150.367 472.81 151.625C472.777 152.289 472.224 152.061 472.052 152.314C471.544 153.06 472.485 153.525 472.442 154.147C472.487 154.664 471.52 154.479 471.832 155.214C472.616 154.996 473.069 153.827 474.12 154.459C474.443 155.797 474.443 155.797 475.974 155.614C476.461 155.269 475.445 154.9 476.008 154.462C476.309 154.963 477.162 155.129 476.39 155.971C476.16 156.222 476.563 157.048 476.633 157.373C476.943 157.819 477.396 157.458 477.446 157.895C477.526 158.614 477.026 159.089 476.839 159.641C476.354 159.69 475.927 159.43 475.553 159.64C475.66 160.537 476.624 160.013 476.802 160.663L476.723 161.683ZM353.24 398.792C354.367 398.9 355.405 399.079 356.447 399.075C357.468 399.072 358.416 399.425 359.443 399.467C360.822 399.521 362.189 399.254 363.564 399.425C366.295 399.674 369.043 399.728 371.787 399.588C376.067 399.365 380.331 398.862 384.553 398.082C385.53 397.937 386.486 397.635 387.452 397.405C376.137 397.499 364.893 398.858 353.613 398.289C353.535 398.285 353.438 398.511 353.24 398.792ZM341.67 188.223C337.172 188.441 332.697 189.054 328.297 190.055C323.01 191.148 317.75 192.393 312.471 193.534C312.206 193.561 311.957 193.672 311.758 193.851C311.56 194.03 311.424 194.266 311.369 194.526C321.358 193.002 331.144 190.779 340.967 188.775C341.226 188.723 341.436 188.413 341.67 188.223ZM357.543 98.0609C359.599 99.2823 361.958 98.9664 364.085 99.6645C366.294 100.341 368.544 100.88 370.822 101.281C373.157 101.739 375.519 102.075 377.854 102.462C377.836 102.244 377.748 102.039 377.601 101.878C377.455 101.717 377.26 101.609 377.044 101.571C375.23 101.426 373.914 99.7056 371.956 100.066C371.12 99.0684 369.89 99.3121 368.801 99.0676C368.081 98.939 367.43 98.567 366.957 98.0138C366.02 98.2218 365.046 98.1123 364.187 97.7027C363.451 97.3492 362.461 97.6201 361.732 97.0494C361.109 98.3313 360.957 98.3334 359.373 97.2062C359.176 97.4349 359.42 97.8242 358.862 98.0965L357.543 98.0609ZM362.664 119.216C366.293 120.873 376.049 123.01 379.255 121.773C378.187 121.418 377.422 120.664 376.233 121.206C375.799 121.403 375.15 121.047 374.617 121.112C373.851 121.207 373.845 120.223 373.093 120.242C372.313 120.26 371.464 119.758 370.763 119.946C369.801 120.204 369.225 119.454 368.4 119.471C367.62 119.578 366.828 119.488 366.097 119.21C365.374 118.795 364.456 119.432 363.958 118.718C363.43 117.963 362.5 119.026 362.048 118.222C360.818 118.199 359.742 117.459 358.486 117.524C358.038 117.548 357.742 117.617 357.679 118.159C358.456 118.868 359.538 118.911 360.407 119.173C360.692 119.65 360.249 120.262 360.927 120.452C360.981 120.454 361.084 120.492 361.13 120.456C361.625 120.067 362.111 119.666 362.664 119.216ZM239.052 288.715C238.627 288.235 238.989 287.65 238.304 287.232C237.648 286.929 236.962 286.692 236.257 286.526C235.837 286.373 235.382 286.333 234.938 286.411C234.494 286.49 234.078 286.684 233.731 286.974C233.124 287.423 232.945 286.784 232.469 286.756C231.249 287.675 230.116 288.694 230.142 290.753C233.143 289.955 236.195 290.467 239.052 288.715ZM228.94 142.327C227.918 143.138 226.986 144.057 226.159 145.065C224.856 146.595 223.806 148.283 222.575 149.841C220.7 152.216 219.412 154.924 217.89 157.492C217.327 158.346 216.853 159.254 216.476 160.203C216.169 161.176 215.745 162.111 215.214 162.986C215.152 163.082 214.963 163.412 215.462 163.545C215.801 163.201 216.092 162.812 216.325 162.39C217.302 160.279 218.645 158.353 219.798 156.332C221.043 154.186 222.403 152.108 223.874 150.108C224.646 149.037 225.399 147.913 226.142 146.843C227.061 145.519 228.303 144.311 228.94 142.327Z" fill="#474747"/>
<path d="M366.246 503.372C282.604 473.895 240.986 407.431 242.345 324.166C243.124 276.392 263.02 236.42 295.869 203.317C329.046 169.884 369.28 147.771 416.374 140.716C436.044 137.77 456.156 137.534 476.092 136.755C483.866 136.452 490.986 139.537 497.39 144.54C505.543 150.839 514.806 155.553 524.697 158.436C546.465 164.886 563.399 178.19 577.564 195.109C587.112 206.509 598.086 216.813 605.722 229.764C629.446 270.01 640.776 313.492 639.71 360.21C639.35 377.804 632.181 393.519 625.264 409.123C621.277 418.114 614.585 426.084 610.16 434.507C606.713 441.053 599.384 444.196 598.289 448.964C596.635 456.172 592.308 459.634 587.871 463.564C546.153 500.531 496.048 512.687 441.834 512.557C422.633 512.51 403.499 511.456 384.58 508.151C377.275 506.875 370.168 504.421 366.246 503.372ZM337.019 244.388C337.932 244.14 339.012 244.186 339.394 243.692C353.745 225.159 373.55 214.776 394.448 205.502C404.827 200.897 413.359 192.893 423.859 184.632C399.234 184.378 345.416 222.442 337.019 244.388ZM551.021 402.985L488.437 444.722C524.384 430.253 543.896 417.014 551.02 402.988L551.021 402.985ZM355.385 170.033C375.632 161.815 397.316 157.509 416.733 147.031C395.069 151.394 373.972 157.297 355.385 170.033ZM512.087 382.753C502.97 388.693 491.646 391.981 486.73 403.107C496.682 398.222 506.126 392.716 512.087 382.753ZM385.094 259.071C395.45 250.983 407.066 244.491 414.751 233.575C401.865 238.663 393.726 249.255 385.094 259.071ZM532.2 492.101L533.343 493.929C542.066 491.217 550.167 486.807 557.181 480.954C552.975 482.305 549.226 484.545 545.306 486.431C541.018 488.491 536.577 490.222 532.2 492.101ZM344.29 175.133C339.607 176.653 336.141 178.27 333.453 181.315C332.718 182.147 331.78 183.066 332.703 184.14C333.352 184.562 334.109 184.787 334.882 184.787C336.475 180.351 343.869 182.244 344.29 175.133Z" fill="#DCAE55"/>
<path d="M388.087 416.648C389.667 416.419 391.066 414.4 393.108 415.95L392.193 416.96C393.977 417.897 394.616 419.588 394.99 421.247C397.028 423.456 399.073 425.484 400.895 427.702C402.805 430.027 404.502 432.535 406.339 435.027L405.101 436.275C408.833 436.313 410.943 438.647 412.752 441.016L415.581 439.761C415.604 439.41 415.626 439.059 415.662 438.505C414.77 438.27 413.837 438.026 412.64 437.711C413.177 435.205 411.645 433.741 409.796 432.295L408.032 433.394C407.685 430.677 406.338 428.197 404.262 426.457C399.753 422.533 396.704 417.308 393.743 412.116C393.25 411.25 393.304 410.058 392.917 408.037L390.531 411.671L392.871 413.684C390.802 414.289 389.286 414.73 387.773 415.172L385.221 409.404L386.218 408.273C383.863 404.278 384.26 399.541 383.482 394.91L384.766 392.721L387.094 392.87L387.644 390.484C386.309 390.908 385.486 391.168 384.637 391.437C384.375 391.132 384.032 390.735 383.701 390.353C383.779 387.737 386.301 387.525 387.962 385.858C386.889 385.601 386.039 385.397 384.857 385.113C384.443 382.026 386.93 379.846 387.532 377.129C388.568 377.084 389.39 377.047 391.247 376.965C389.772 376.062 388.945 375.557 388.602 375.347L388.899 370.72C389.54 371.149 389.979 371.443 390.927 372.079L390.362 368.823C390.223 369.281 390.248 369.011 390.375 368.806C392.529 365.342 394.522 361.754 396.901 358.459C400.089 353.97 403.971 350.037 408.397 346.814C412.151 344.127 416.415 342.189 420.063 339.271C420.798 338.683 421.819 338.464 422.763 338.052C422.868 338.174 423.096 338.439 423.615 339.044C424.005 338.25 424.584 337.568 425.299 337.06C426.014 336.552 426.843 336.235 427.709 336.137C433.605 335.142 433.611 335.178 435.819 336.392L441.483 334.546L442.662 337.397L444.5 336.374C448.602 337.426 452.39 338.397 456.242 339.385L456.362 342.111C459.857 342.118 461.87 344.675 464.227 347.543L466.029 344.698L468.763 346.7L466.55 347.311C466.851 348.211 466.901 349.49 467.554 350.109C469.734 352.134 472.02 354.036 474.404 355.808C475.004 356.262 475.985 356.195 476.191 356.239C477.705 358.215 478.615 360.355 480.207 361.296C484.554 363.865 486.151 368.37 488.567 372.315C489.198 373.466 489.771 374.65 490.284 375.86C489.816 375.998 489.202 376.182 488.545 376.376C488.639 376.627 488.735 377.094 488.828 377.094C490.274 377.097 491.635 377.213 492.28 379.472L492.083 382.544L496.296 386.561L495.147 389.783C498.631 391.729 499.192 395.715 500.489 399.361L499.39 400.589L502.227 404.047L501.959 408.22C503.748 409.251 505.217 410.405 503.959 412.79L507.079 418.192L513.496 408.231L512.709 406.944L514.175 403.122L515.308 403.195C515.408 402.934 515.637 402.521 515.574 402.471C514.379 401.481 514.9 400.156 515.074 399.042C515.3 397.593 515.972 396.221 516.314 394.783C516.627 393.462 516.442 391.923 517.045 390.789C517.868 389.234 516.518 388.149 516.667 386.672C516.832 385.03 518.056 383.622 517.404 381.68C516.887 380.141 517.382 378.226 517.517 376.485C517.943 371.062 516.828 365.84 515.714 360.602C515.031 357.387 514.762 354.066 513.889 350.913C512.567 345.881 510.957 340.933 509.069 336.093C508.155 333.842 508.517 331.011 506.309 329.297C505.63 328.771 506.481 327.051 504.7 327.169C504.404 327.188 504.109 325.796 503.665 325.165C503.061 324.311 502.261 323.605 501.642 322.761C500.478 321.172 499.384 319.531 497.986 317.515L502.054 317.776C503.052 319.891 503.052 319.891 507.269 322.085L507.437 319.468C504.505 318.137 503.192 314.862 500.666 312.78L502.24 311.454L505.791 313.516C505.795 312.919 506.046 312.095 505.757 311.77C504.936 310.845 503.894 310.124 502.305 308.792C503.814 308.458 504.654 308.272 505.681 308.046L508.26 304.659L509.712 309.253C510.603 309.039 511.638 308.79 512.902 308.487L515.437 312.588L517.077 310.004L519.378 312.801L517.657 315.503C519.262 315.199 520.097 315.04 520.87 314.894L521.852 316.584C521.737 316.601 521.258 316.67 520.387 316.796L523.454 322.168C523.943 321.771 524.326 321.461 524.179 321.579L527.512 324.371L525.986 326.015C526.933 326.652 527.879 327.29 528.847 327.942L528.663 330.821C530.282 333.708 531.942 336.21 533.13 338.928C534.19 341.355 533.064 344.428 535.17 346.914L532.781 348.927L532.796 352.118L534.435 349.078C535.877 352.6 539.12 355.501 536.494 359.735L538.18 361.687L536.987 362.951C538.319 365.121 538.475 367.482 536.518 369.786L538.749 372.712L537.63 375.679C537.753 375.933 538.289 376.528 538.227 377.048C538.157 377.622 537.359 378.078 537.197 378.675C537.04 379.542 536.969 380.421 536.985 381.302C537.011 382.006 536.954 382.71 536.813 383.4C536.618 384.002 536.114 384.503 535.562 385.321C538.595 388.398 534.317 390.825 535.228 394.807L531.477 391.691C530.548 392.585 531.575 394.753 533.934 396.728L532.257 396.981C530.605 398.526 532.58 399.979 532.593 401.57L530.385 403.662L531.37 404.961C530.775 405.087 530.303 405.188 529.495 405.36C528.273 408.78 526.984 412.461 525.517 416.065C525.299 416.705 524.925 417.28 524.43 417.733C523.935 418.187 523.335 418.506 522.687 418.659C522.566 420.114 522.936 421.806 522.269 422.693C518.571 427.609 514.605 432.317 510.773 437.13C510.176 437.883 509.817 438.832 509.29 439.65C508.66 440.628 507.966 441.562 507.217 442.633C507.592 442.783 508.145 443.004 509.079 443.377C508.594 446.048 509.499 449.019 507.479 451.579L509.074 455.264C506.728 458.237 509.209 462.571 506.921 465.51L507.67 469.021C506.832 469.254 506.215 469.426 505.556 469.609C506.575 471.685 505.922 473.412 505.091 475.506C504.306 477.483 504.37 479.8 502.51 481.317C502.705 481.582 502.898 481.845 503.306 482.392L502.166 483.764L502.823 485.371C502.129 487.642 501.568 489.994 500.692 492.217C498.9 496.762 498.296 501.77 495.239 505.847C494.21 507.219 493.816 509.131 493.298 510.847C490.256 520.912 484.486 529.401 478.42 537.733C475.03 542.444 471.048 546.684 466.578 550.344C465.104 551.541 463.433 552.712 462.484 554.292C461.451 556.01 459.575 556.164 458.372 557.554C455.119 561.312 450.544 563.358 446.55 566.143C442.606 568.794 438.488 571.167 434.226 573.244C429.773 575.507 425.294 577.978 420.544 579.293C416.065 580.533 411.771 582.689 407.005 582.87C406.425 582.891 405.851 583.755 405.295 583.731C402.13 583.595 399.239 585.084 396.166 585.262C393.935 585.39 391.677 585.027 389.046 584.858L386.603 581.578L388.431 576.462C389.124 576.35 389.601 576.273 390.114 576.19L390.247 574.116C391.553 573.217 392.675 572.189 393.984 571.615C395.303 570.979 396.745 570.656 398.203 570.669C403.288 570.995 407.593 568.31 412.223 566.995C415.587 566.037 418.844 564.593 422.243 563.596C424.071 563.06 425.704 561.807 427.394 560.811C431.2 558.568 435.236 556.751 438.903 554.238C440.927 552.851 443.28 551.939 445.222 550.457C449.442 547.234 453.641 543.954 457.581 540.39C465.886 532.876 471.914 523.534 477.29 513.76C478.454 511.645 478.952 509.132 479.62 506.759C480.511 503.594 482.643 500.946 483.175 497.636C483.944 492.856 486.441 488.538 486.749 483.605C486.864 481.816 487.656 480.077 488.063 478.298C488.47 476.519 487.761 474.564 489.358 472.902C489.902 472.335 489.45 470.611 489.216 469.468C488.537 466.165 488.76 463.8 490.245 460.681L489.111 458.745C489.544 458.27 489.959 457.769 490.421 457.32C490.789 456.96 491.215 456.66 491.463 456.457L488.7 453.476C486.764 454.268 484.432 455.318 482.034 456.177C479.619 457.04 477.092 457.591 474.698 458.499C472.232 459.474 469.647 460.099 467.016 460.357L465.727 461.511C463.79 461.387 461.734 461.169 459.676 461.153C458.22 461.141 456.688 460.359 455.285 461.776C454.87 462.197 453.432 462.097 452.818 461.686C450.051 459.833 446.908 460.593 443.952 460.102C441.333 459.666 438.74 459.102 436.961 456.465C434.687 456.563 432.437 455.986 430.483 454.804C429.143 453.958 427.105 453.957 426.136 452.874C424.882 451.472 423.293 451.87 422.089 451.192C419.537 449.756 416.151 449.153 415.557 445.099L413.462 446.516L411.447 443.237C410.872 442.967 409.438 442.292 407.21 441.243C405.22 439.286 401.951 437.057 400.08 433.953C398.241 430.899 395.55 428.802 393.615 426.004C391.561 423.038 389.912 419.777 388.087 416.648ZM406.347 372.559C404.655 373.604 403.351 374.408 402.088 375.191L404.487 377.289C403.285 377.788 402.562 378.089 401.733 378.434C402.498 378.861 403.177 379.24 403.813 379.595L403.728 380.93C402.788 381.037 401.829 381.143 400.692 381.272L400.404 385.771C397.247 387.207 396.045 389.157 397.441 390.277C397.862 389.973 398.244 389.512 398.693 389.427C399.107 389.348 399.594 389.673 400.544 389.981C399.462 391.212 398.46 392.095 397.811 393.191C397.442 393.814 397.649 394.789 397.575 395.944L399.597 394.621C402.083 396.99 402.089 396.992 400.593 399.386C400.998 400.374 401.132 401.631 401.792 402.075C402.614 402.626 403.807 402.557 403.247 403.969C402.419 404.419 401.66 404.828 400.508 405.451C402.661 407.351 404.382 408.87 406.101 410.39L404.809 411.709L407.704 413.794L409.152 417.583L410.441 416.67L411.875 423.102L412.917 422.256C415.175 423.336 417.351 424.377 419.979 425.634C418.854 421.42 414.882 420.623 413.124 417.712C411.366 414.802 409.187 412.168 406.982 409.119L409.308 409.268C410.875 411.288 412.415 412.721 413.247 414.498C414.122 416.367 416.228 416.989 416.897 418.799C417.648 420.836 419.661 421.284 420.949 422.612C423.084 424.816 426.564 425.732 427.117 429.281C430.005 429.833 432.561 430.798 434.555 433.117L438.54 433.372L439.117 435.364C440.491 434.47 441.766 433.808 443.113 435.313C444.013 436.302 445.118 437.075 446.347 437.577C447.576 438.079 448.9 438.299 450.224 438.219C452.317 438.172 454.039 439.214 455.95 439.658C457.386 439.992 459.031 439.528 460.136 440.996C460.224 441.113 460.74 440.894 461.056 440.832L461.809 439.045C462.312 439.483 462.87 439.851 463.468 440.139C464.139 440.321 464.837 440.371 465.527 440.286C466.209 440.226 466.879 439.846 467.551 439.857C468.133 439.866 468.813 440.535 469.273 440.376C471.923 439.455 474.639 439.194 477.398 438.827C480.763 438.34 483.948 436.969 486.639 434.851C486.334 430.868 484.5 427.905 484.046 424.365C483.564 420.606 481.255 417.131 480.068 413.423C477.819 406.397 472.963 400.561 471.354 393.251C471.232 392.698 470.433 392.298 469.947 391.833C469.487 391.5 469.079 391.099 468.736 390.644C465.277 384.37 461.069 378.556 456.206 373.337C453.607 370.473 450.585 368.201 447.483 365.97C445.764 364.733 443.58 364.11 442.178 362.65C439.678 360.045 436.36 359.635 433.319 358.876C430.013 358.05 426.438 358.025 422.997 358.149C419.435 358.353 415.989 359.523 413.017 361.538C412.123 362.116 411.777 363.525 410.924 364.236C410.07 364.947 408.907 365.263 407.735 365.819L408.718 367.219L406.554 369.267L406.347 372.559Z" fill="#D26262"/>
<path d="M711.709 285.925C717.148 285.621 719.285 281.373 722.601 279.056C725 277.381 726.933 273.464 730.553 276.418C734.225 279.413 730.672 282.013 729.487 284.689C729.154 285.442 728.952 286.255 728.653 287.152C732.667 288.965 734.817 281.687 738.535 285.194C741.36 287.858 740.138 293.937 741.328 295.064C749.613 302.905 736.8 304.99 738.157 310.629C740.883 311.568 740.743 306.125 743.87 307.48C703.19 363.734 656.355 377.653 598.032 347.799C560.337 328.504 542.915 297.211 543.711 256.209C544.269 227.343 561.402 206.6 584.006 190.245C586.598 188.368 590.172 185.954 593.228 189.662C598.272 195.781 608.799 198.804 605.023 210.061C599.912 225.304 592.159 239.582 588.403 255.311C584.529 271.545 584.221 287.664 590.43 303.498C591.732 306.819 593.518 309.778 596.94 311.162C621.3 321.015 645.309 324.097 668.242 307.285C680.493 298.191 691.518 287.553 701.043 275.634C704.396 271.497 708.286 268.157 713.615 267.117C715.276 266.768 717.009 267.058 718.466 267.929C720.237 269.272 718.488 270.894 717.873 272.441C716.134 276.806 712.313 280.263 711.709 285.925ZM688.381 307.248C681.025 312.429 673.669 317.609 666.314 322.791C676.043 320.858 683.073 315.229 688.381 307.248Z" fill="#7C5ED4"/>
<path d="M188.525 250.797C192.054 249.135 193.527 249.909 193.461 253.887C193.353 260.398 192.553 266.879 190.157 273.015C189.54 274.595 190.62 275.443 190.734 276.669C190.986 279.377 190.685 282.082 190.866 284.798C191.461 293.738 197.484 297.555 204.021 301.155C217.71 308.693 230.808 305.305 243.941 298.354C253.629 293.226 261.273 285.509 269.242 278.164C278.021 270.071 287.291 262.686 297.595 256.814C315.006 246.893 334.444 250.592 348 266.045C354.967 273.987 360.146 283.125 364.027 292.909C368.17 303.354 375.998 307.158 386.022 307.507C399.491 307.978 409.497 301.06 417.578 290.303C423.773 282.056 428.68 272.963 434.245 264.307C446.313 245.536 459.851 241.98 480.106 244.962C487.53 246.054 491.628 250.928 494.691 257.2C497.436 262.825 499.983 268.558 502.615 274.244C503.212 275.534 503.751 276.868 505.032 277.625C515.047 283.549 525.168 289.268 536.947 290.792C549.074 292.362 564.491 284.862 570.329 270.646C574.674 260.064 579.186 249.552 583.6 238.999C584.255 237.432 584.953 235.858 586.238 234.787C586.821 234.268 587.538 233.937 588.296 233.839C589.054 233.74 589.818 233.878 590.488 234.234C592.001 234.939 591.886 235.857 591.246 237.1C591.117 237.309 591.071 237.56 591.117 237.799C591.164 238.038 591.299 238.247 591.495 238.381C596.367 241.547 595.183 246.555 594.291 250.966C592.3 260.814 587.71 269.807 584.137 279.13C582.542 283.531 580.626 287.808 578.406 291.924C573.27 301.058 565.762 306.727 555.546 309.553C557.322 307.485 559.919 307.852 561.331 306C556.867 307.262 552.447 308.614 547.874 309.436C548.281 310.611 549.603 309.277 549.983 310.899C545.978 311.21 542.04 312.142 538.487 309.602C537.897 309.18 537.674 309.389 537.117 309.473C533.497 310.008 530.283 308.356 526.956 307.384C525.581 306.984 525.267 305.718 526.024 304.014C523.566 306.312 521.565 305.276 519.399 304.07C516.067 302.214 512.559 300.69 509.2 298.881C501.666 294.821 496.565 288.338 492.759 280.692C490.654 276.462 488.764 272.11 486.906 267.752C486.073 265.799 484.723 264.902 482.766 264.442C468.95 261.198 458.422 265.203 449.793 277.028C444.548 284.216 440.426 292.136 435.611 299.602C430.028 308.259 423.836 316.301 414.506 320.989C410.845 322.829 406.87 323.486 402.959 324.482C397.457 325.972 391.71 325.992 386.266 324.54C370.236 320.312 358.457 310.929 351.849 295.008C349.546 289.457 346.606 284.2 343.952 278.814C339.327 269.432 328.329 266.583 319.544 268.567C309.516 270.829 301.273 276.72 293.346 283.011C284.495 290.035 276.318 298.001 267.295 304.757C256.533 312.816 244.458 318.321 231.112 318.914C224.429 319.211 217.732 318.27 211.41 315.071C207.886 313.289 204.063 311.925 200.439 310.166C195.113 307.566 190.308 303.985 186.253 299.597C178.726 291.522 175.839 281.654 177.811 270.317C178.827 264.476 180.96 259.028 183.439 253.68C184.241 252.064 185.284 250.583 186.529 249.294C187.062 248.707 187.881 247.556 188.862 248.475C189.688 249.249 187.638 249.643 188.525 250.797ZM304.986 259.044C303.136 258.534 302.311 259 301.484 259.464C294.167 263.568 287.153 268.083 280.705 273.643C271.996 281.151 263.755 289.244 254.559 296.162C253.026 297.315 250.675 297.592 249.624 300.382C253.242 298.874 256.6 296.753 259.56 294.108C265.949 288.399 272.257 282.58 278.728 276.967C286.651 270.095 295.305 264.32 304.986 259.044ZM464.45 249.567C462.079 248.616 451.816 250.737 450.618 252.305C450.511 252.435 450.431 252.585 450.384 252.747C450.337 252.909 450.324 253.079 450.346 253.245C450.7 254.088 451.493 253.969 452.141 253.753C456.186 252.409 460.219 251.012 464.45 249.567ZM541.388 295.953C545.253 296.835 548.835 296.069 552.245 294.327C553.144 293.869 555.206 293.823 554.319 292.21C553.496 290.716 552.777 292.906 551.885 293.1C551.426 293.17 550.974 293.29 550.537 293.458C547.596 294.803 544.261 294.438 541.388 295.953ZM398.547 310.243C401.354 310.918 407.554 308.448 409.109 306.169C409.387 305.76 409.703 305.277 409.247 304.957C408.935 304.737 408.14 304.669 407.981 304.874C405.58 307.984 401.71 308.302 398.547 310.243Z" fill="#5AB0A6"/>
<path d="M461.924 569.358C461.955 569.741 461.851 570.116 461.631 570.418C461.412 570.72 461.089 570.93 460.722 571.009C456.913 572.407 453.392 574.412 449.636 575.936C447.612 576.741 445.663 577.714 443.808 578.846C442.343 579.757 440.581 580.039 439.074 580.924C437.45 581.875 435.57 582.336 433.863 583.175C432.423 583.883 430.742 584.037 429.241 584.714C427.044 585.672 424.796 586.516 422.505 587.242C421.101 587.889 419.58 588.267 418.017 588.356C417.594 588.337 417.366 588.602 417.045 588.708C415.679 589.208 414.281 589.622 412.858 589.948C409.823 590.551 406.861 591.451 403.82 592.007C401.612 592.408 399.446 592.942 397.259 593.411C395.154 593.859 393.039 594.266 390.913 594.63C385.94 595.502 380.908 596.076 375.844 596.351C371.874 596.516 367.889 596.454 363.907 596.165C360.676 596.063 357.446 595.744 354.238 595.21C351.688 594.7 349.066 594.557 346.598 593.827C344.27 593.138 341.895 592.572 339.569 591.946C334.183 590.497 328.861 588.838 323.603 586.969C320.506 585.872 317.411 584.702 314.31 583.658C310.671 582.432 307.181 580.805 303.549 579.569C301.422 578.844 299.304 577.813 297.186 576.94C295.136 576.096 293.203 574.972 291.106 574.255C289.037 573.468 287.005 572.577 285.017 571.585C283.141 570.724 280.957 570.236 279.402 568.629C277.634 568.839 276.452 567.38 274.984 566.764C273.516 566.149 272.069 565.429 270.599 564.914C269.084 564.383 267.552 563.801 266.067 563.234C263.05 562.083 259.955 561.225 256.954 560.086C255.123 559.393 253.241 559.297 251.408 558.779C247.892 557.805 244.304 557.183 240.697 556.921C239.248 556.844 237.809 556.547 236.429 556.037C235.391 555.625 234.52 556.294 233.497 556.07C231.842 555.707 230.139 555.624 228.462 555.39C228.204 555.308 227.932 555.296 227.674 555.355C227.416 555.414 227.181 555.542 226.993 555.726L225.947 554.682C225.344 554.601 225.839 555.129 225.544 555.31C224.849 555.279 224.098 555.425 223.38 554.931C222.706 554.466 222.091 555.147 221.341 554.953C219.711 554.537 217.933 555.567 216.356 554.282C214.819 554.816 213.198 554.395 211.62 554.467C210.802 554.55 209.969 554.313 209.292 553.805C208.688 553.317 207.954 554.569 207.359 553.603C204.678 554.284 202.129 552.991 199.6 552.468C195.542 551.628 191.411 551.092 187.438 549.556C185.45 548.788 183.187 548.562 181.149 547.817C176.567 546.144 171.877 544.779 167.469 542.559C165.649 541.64 163.643 541.123 161.829 540.187C157.986 538.206 154.136 536.229 150.437 533.96C149.68 533.639 149.018 533.113 148.526 532.444C148.038 531.588 146.992 532.003 146.232 531.5C145.326 530.907 144.776 529.942 143.698 529.467C143.103 529.205 142.408 528.445 141.719 528.14C139.481 527.146 138.026 525.003 135.768 524.063C134.988 523.578 134.317 522.929 133.805 522.161C131.801 519.985 128.959 518.808 127.24 516.371C126.318 515.102 125.108 514.07 123.717 513.37C123.276 513.136 122.806 512.914 122.687 512.523C122.274 511.163 121.039 510.522 120.185 509.582C119.271 508.575 118.034 507.885 117.201 506.729C116.476 505.48 115.542 504.36 114.443 503.423C112.407 502.059 111.166 500.067 109.679 498.271C108.937 497.374 107.759 496.695 107.823 495.217C107.857 494.439 106.221 495.139 106.377 493.885C106.47 493.142 105.977 492.787 105.298 492.479C104.677 492.197 104.992 491.024 104.266 490.855C103.539 490.686 102.676 490.185 102.803 489.811C103.118 488.872 101.717 488.97 102.034 488.223C102.04 488.18 102.036 488.135 102.022 488.092C102.009 488.05 101.986 488.011 101.955 487.978C100.115 486.178 99.4274 483.62 97.663 481.722C96.6472 480.54 95.854 479.184 95.325 477.726C94.7465 476.407 94.0628 475.135 93.2808 473.921C92.022 471.806 91.4355 469.429 90.1661 467.346C89.8231 466.782 90.9105 465.694 89.4503 465.528C89.7336 464.615 88.8151 464.232 88.5612 463.574C88.4445 462.977 88.419 462.37 88.4856 461.774C87.6253 460.671 87.0259 459.391 86.7361 458.037C85.8293 455.353 85.0892 452.622 84.5204 449.859C83.7669 446.07 82.8258 442.258 83.2497 438.389C83.3372 437.593 82.5365 437.352 82.5419 436.645C82.5511 432.528 82.1438 428.406 82.8951 424.309C83.2084 422.594 82.909 420.672 83.218 418.91C83.837 415.372 83.9747 411.758 85.1198 408.288C85.7987 406.234 86.1736 403.98 86.8154 401.858C88.0227 397.411 89.7631 393.15 91.9991 389.167C93.7605 386.223 95.4569 383.238 97.4617 380.443C98.152 379.482 99.1454 378.822 99.6907 377.873C100.221 376.949 100.94 376.153 101.803 375.537C102.475 375.042 102.321 374.051 103.151 373.603C103.541 373.466 103.885 373.229 104.15 372.914C104.415 372.599 104.592 372.216 104.664 371.804C104.719 371.322 105.568 370.964 106.064 370.557C106.721 369.913 107.446 369.343 108.227 368.855C108.888 368.522 108.592 367.193 109.743 367.509C109.718 366.355 110.766 366.093 111.392 365.494C111.989 364.923 112.668 364.438 113.31 363.915L115.452 362.172C116.165 361.748 116.801 361.209 117.337 360.575C118.103 359.27 119.486 358.663 120.403 357.502C121.529 356.283 122.806 355.217 124.205 354.326C125.366 353.466 125.772 351.971 127.059 351.185C128.373 350.504 129.521 349.548 130.429 348.378C131.294 347.035 132.864 346.397 133.482 345.097C134.227 343.551 135.855 343.132 136.681 341.88C138.484 339.148 141.11 337.125 142.937 334.485C145.242 331.155 147.955 328.153 150.107 324.684C151.505 322.429 152.836 320.117 154.237 317.86C155.546 315.548 156.653 313.119 157.547 310.6C158.747 307.49 159.692 304.276 160.372 300.99C161.095 297.691 161.309 294.297 161.977 291C162.281 289.495 162.302 287.956 162.655 286.452C163.034 284.832 162.782 283.033 163.157 281.409C164.095 277.346 163.908 273.042 165.308 269.088C165.588 263.797 167.625 258.961 168.606 253.848C169.092 251.3 170.292 248.927 171.13 246.455C172.524 242.357 174.324 238.447 176.086 234.517C177.733 230.926 179.616 227.459 181.725 224.139C183.222 221.736 184.838 219.411 186.288 216.979C186.877 215.994 188.208 215.626 188.32 214.294C190.393 212.744 191.309 210.119 193.449 208.632C194.054 206.994 195.496 206.148 196.788 205.226C197.775 204.523 197.854 203.186 198.982 202.58C200.087 202.09 201.031 201.308 201.72 200.314C202.683 198.521 204.34 197.61 205.763 196.41C209.07 193.621 212.427 190.893 215.835 188.223C216.952 187.35 217.782 186.032 219.359 185.775C220.743 185.55 221.26 183.873 222.77 183.771C223.32 183.733 222.977 182.856 223.562 182.606C224.703 182.117 225.237 180.75 226.719 180.624C227.866 180.526 228.286 178.915 229.707 179.001C230.566 179.052 230.035 176.969 231.516 177.651C232.557 176.49 234.032 176.013 235.347 175.287C236.435 174.684 237.035 173.43 238.48 173.253C239.712 173.103 240.211 171.369 241.718 171.588C242.865 170.109 244.845 169.918 246.227 168.738C247.338 167.891 248.563 167.203 249.869 166.693C251.84 165.804 253.782 164.855 255.694 163.864C256.389 163.515 257.104 163.207 257.836 162.939C258.24 162.784 258.689 163.025 259.107 162.677C261.758 160.48 265.079 159.498 268.227 158.321C270.101 157.481 272.054 156.813 274.061 156.327C274.629 156.224 275.327 155.625 275.982 155.658C277.911 155.752 279.523 154.846 281.202 154.256C282.087 153.92 283.021 153.717 283.975 153.654C284.157 153.643 284.42 153.788 284.525 153.706C286.461 152.182 288.946 152.327 291.187 151.765C293.356 151.221 295.641 151.089 297.786 150.49C302.111 149.282 306.639 149.028 311 148C312.327 147.753 313.672 147.589 315.026 147.507C315.938 147.174 315.446 146.455 316.086 146.107C316.659 145.816 317.281 146.168 318.008 146.726C319.323 145.149 321.357 145.556 323.12 145.333C327.29 144.806 331.499 144.462 335.715 144.284C338.488 144.089 341.279 144.066 344.07 144.213C353.019 144.927 361.943 145.989 370.841 147.295C374.231 147.792 377.646 148.277 381.015 148.955C383.878 149.531 386.77 150.091 389.588 150.85C396.174 152.614 402.765 154.386 409.239 156.645C414.189 158.374 419.024 160.389 423.87 162.397C426.98 163.687 430.015 165.1 433.014 166.639C437.806 169.097 442.546 171.66 447.234 174.326C451.644 176.843 455.474 180.242 459.995 182.518C461.983 184.952 465.161 185.896 467.089 188.403C468.615 188.887 469.537 190.257 470.669 191.222C471.838 192.219 473.297 192.954 474.159 194.387C474.549 195.04 475.591 195.073 476.062 195.877C476.229 196.242 476.473 196.569 476.776 196.835C477.078 197.101 477.432 197.298 477.813 197.413C477.582 198.505 478.882 198.016 479.165 198.769C479.474 199.585 480.039 200.285 480.771 200.76C482.473 201.738 483.23 203.711 484.724 204.654C486.348 205.675 487.013 207.447 488.441 208.42C490.189 209.619 490.558 211.764 492.098 213.047C492.233 213.159 492.119 213.576 492.124 213.857C492.519 214.082 492.728 213.638 493.208 213.586C493.264 214.321 493.42 215.049 493.672 215.749C494.163 216.517 494.73 217.236 495.363 217.893L497.647 217.948C498.169 219.009 499.03 219.467 499.27 220.522C499.376 220.982 500.344 221.54 500.922 222.044C501.68 222.707 501.399 224.065 502.202 224.32C503.057 224.704 503.77 225.365 504.224 226.194C509.534 232.666 514.819 239.16 520.077 245.676C520.643 246.371 521.604 246.919 521.38 248.054C523.01 247.912 522.271 249.579 523.006 250.197C523.622 250.868 524.089 251.661 524.375 252.521C525.047 253.949 526.369 255.08 527.363 256.379C528.173 257.156 528.76 258.138 529.055 259.212C529.22 260.217 530.289 260.938 530.79 261.994C531.331 263.353 532.047 264.641 532.918 265.824C533.641 266.546 534.158 267.449 534.409 268.432C534.57 269.256 535.86 269.708 535.589 270.846C536.915 272.3 537.412 274.173 538.284 275.86C540.354 279.923 542.185 284.096 543.768 288.359C545.115 291.926 546.522 295.472 547.835 299.051C548.256 300.21 548.65 301.399 548.99 302.577C550.332 306.793 551.444 311.07 552.322 315.389C552.996 319.238 553.845 323.07 554.355 326.953C554.627 329.019 555.32 331.082 555.689 333.17C556.562 338.095 557.304 343.028 557.796 347.989C558.404 352.332 558.596 356.705 558.369 361.048C558.264 362.194 558.486 363.381 558.452 364.542C558.276 365.843 558.192 367.16 558.201 368.481C558.396 370.164 558.091 371.798 558.21 373.437C558.302 374.709 557.015 375.605 557.797 377.084C558.366 378.16 556.938 379.368 557.575 380.661C556.552 382.105 557.534 383.883 556.892 385.513C556.271 387.088 556.502 389.035 556.358 390.818C556.319 392.616 556.16 394.404 555.883 396.17C555.187 399.347 555.297 402.652 554.676 405.805C554.083 408.81 554.146 411.987 552.935 414.817C552.649 415.485 553.234 415.782 553.157 416.337C553.078 416.916 552.595 417.235 552.58 417.803C552.443 420.091 552.124 422.356 551.626 424.577C551.024 427.754 550.331 430.918 549.756 434.092C548.792 438.984 547.571 443.811 546.098 448.552C545.187 451.657 544.166 454.725 543.179 457.801C542.031 461.373 540.911 464.961 539.688 468.501C538.753 471.203 537.637 473.83 536.671 476.519C535.902 478.645 535.222 480.815 534.543 482.979C533.605 485.971 532.557 488.931 531.603 491.908C530.228 496.115 528.619 500.232 526.781 504.238C525.909 506.297 524.907 508.293 523.778 510.213C523.009 511.441 522.332 512.729 521.754 514.065C520.619 516.742 518.835 518.917 517.338 521.314C516.809 522.154 516.101 522.796 515.552 523.559C515.037 524.273 514.471 524.911 513.925 525.589C512.293 527.616 510.273 529.322 508.997 531.646C508.916 531.804 508.799 531.938 508.655 532.039C506.184 533.605 504.78 536.299 502.37 537.953C500.222 539.428 498.97 541.926 496.679 543.283C496.144 544.989 494.358 545.495 493.395 546.747C490.798 550.121 487.2 552.323 484.038 555.028C480.893 557.724 477.618 560.265 474.416 562.893C472.054 564.6 469.549 566.102 466.927 567.385C466.271 567.595 465.649 567.891 465.075 568.266C464.664 568.663 464.172 568.966 463.629 569.154C463.086 569.342 462.506 569.412 461.924 569.358ZM243.285 551.97C243.282 552.199 243.323 552.429 243.406 552.645C243.49 552.862 243.614 553.062 243.772 553.234C243.93 553.405 244.119 553.545 244.328 553.645C244.536 553.745 244.761 553.804 244.988 553.817L246.451 552.626C247.616 553.926 248.989 552.303 250.521 553.125C251.78 553.801 253.427 553.693 254.884 553.929C255.186 553.326 254.247 552.915 254.723 552.26C253.477 552.026 252.095 552.278 251.34 550.892L250.328 551.715C249.37 551.168 248.293 550.89 247.214 550.913C246.2 550.782 245.265 549.731 244.179 550.527C243.408 549.38 242.259 550.391 241.28 549.89C240.301 549.554 239.279 549.384 238.259 549.385C237.178 549.249 236.055 549.405 235.038 549.263C234.022 549.253 233.004 549.161 231.995 548.987C230.962 548.668 229.937 547.995 228.869 548.339C228.351 548.48 227.804 548.505 227.265 548.412C226.726 548.32 226.208 548.111 225.748 547.801C224.657 549.262 223.647 548.164 222.634 547.302L222.57 548.1C222.032 548.49 221.954 547.567 221.483 547.677C220.196 547.974 218.825 548.409 217.563 547.939C216.145 547.412 214.77 547.697 213.383 547.518C207.936 546.824 202.504 546.023 197.092 545.034C196.723 544.967 196.246 545.058 195.997 544.853C194.508 543.624 192.706 543.857 191.044 543.437C189.234 543.15 187.436 542.771 185.656 542.301C183.197 541.289 180.634 540.595 178.029 540.235C177.893 539.856 178.192 539.572 177.985 539.475C176.529 539.234 174.925 539.429 174.029 538.708C172.821 537.737 171.697 538.071 170.204 537.538C172.147 539.49 172.147 539.49 174.128 539.762C174.194 540.881 175.806 540.785 175.937 542.049C176.869 541.61 177.811 540.621 178.754 542.09C178.826 542.214 178.936 542.312 179.066 542.37C179.196 542.428 179.339 542.442 179.474 542.411C181.305 541.962 182.877 543.103 184.546 543.528C185.863 543.863 187.398 544.129 188.049 545.534C189.3 545.145 190.671 545.247 191.893 545.818L191.847 546.837L194.125 546.279C194.824 546.967 195.671 547.481 196.594 547.775L197.442 547.084C198.124 547.591 198.955 547.834 199.778 547.767C200.517 547.817 201.075 548.535 202.009 548.135C202.672 547.85 203.656 548.271 204.497 548.377C205.011 548.795 205.248 549.562 206.099 549.845L205.559 548.238C206.572 549.406 207.478 548.67 208.379 548.838C209.86 549.12 211.365 549.237 212.859 549.423C213.421 548.348 214.024 550.082 214.721 549.445C215.531 548.704 215.576 550.566 216.381 550.185L216.432 549.927L221.807 550.596C222.291 550.585 221.509 551.319 222.199 551.348C223.318 551.481 222.209 549.646 223.493 549.95C223.822 550.177 223.28 550.635 223.828 550.819C224.344 550.764 224.541 549.966 225.23 550.174C225.139 550.629 225.047 551.097 225.288 551.245C225.892 551.572 226.076 551.325 226.278 551.155C227.176 550.399 228.126 549.936 229.314 550.682C230.204 549.982 230.941 551.022 231.791 551.019C232.719 551.016 233.688 551.425 234.586 551.306C237.473 550.925 240.274 551.87 243.285 551.97ZM385.702 569.67C383.431 568.704 381.325 569.169 379.285 568.936C377.49 568.802 375.692 568.772 373.902 568.848C371.966 568.86 370.057 568.486 368.154 568.504C365.354 568.603 362.543 568.505 359.739 568.211C358.995 568.115 358.178 567.808 357.519 567.992C355.741 568.484 354.042 567.773 352.314 567.656C350.585 567.539 348.865 567.91 347.119 567.47C346.659 567.355 346.398 566.965 345.712 567.024C342.903 567.254 340.068 566.246 337.226 566.602C336.366 565.792 335.391 566.481 334.472 566.278C333.553 566.074 332.579 566.021 331.546 565.891C331.976 567.332 333.055 566.808 333.746 567.08C336.783 568.276 339.918 569.161 343.105 569.724C349.332 570.751 355.61 571.257 361.874 571.235C363.428 571.243 364.974 571.497 366.5 571.438C371.704 571.238 376.9 570.95 382.09 570.574C383.355 570.539 384.587 570.231 385.702 569.67ZM410.835 582.24L409.641 582.119C409.684 582.887 409.144 583.385 408.96 584.021C407.913 584.406 407.902 582.4 406.787 582.992C406.565 583.459 407.395 583.768 406.992 584.255C406.366 584.99 405.393 584.806 404.604 585.077C404.221 584.791 404.147 584.182 403.561 584.152C403.407 584.87 403.201 585.556 402.321 585.609C400.576 585.712 398.946 586.673 397.117 586.159C396.454 585.972 395.951 586.68 395.288 586.345C394.524 587.477 393.233 587.249 392.128 587.407C388.518 587.919 384.91 588.484 381.268 588.784C376.435 589.18 371.581 589.579 366.724 589.522C363.372 589.484 359.993 589.764 356.627 589.147C356.099 589.052 355.776 589.252 355.799 589.716C369.164 592.377 382.199 590.996 395.141 588.302C395.087 588.807 394.954 589.285 395.517 589.588C396.5 589.299 397.506 589.088 398.528 588.956C398.784 588.983 399.04 588.958 399.281 588.882C399.523 588.807 399.745 588.683 399.935 588.518C400.125 588.353 400.278 588.15 400.387 587.921C400.495 587.692 400.556 587.441 400.566 587.183L403.675 586.625C404.004 586.96 404.316 587.484 404.521 587.453C405.981 587.229 407.648 587.471 408.542 585.872C409.293 586.927 410.101 586.055 410.823 586.269C411.248 585.313 412.845 586.305 413.088 584.834C413.262 583.786 414.135 583.595 415.094 584.193L415.042 584.84C415.627 584.235 416.698 585.03 417.101 584.152C417.169 583.486 416.101 584.13 416.407 583.215C417.91 582.682 419.455 582.269 421.031 581.977C421.482 581.915 421.908 581.75 422.279 581.496C422.65 581.242 422.955 580.904 423.173 580.507C421.885 580.689 420.878 581.323 419.786 580.595C419.739 581.149 419.798 581.699 418.927 581.678C418.135 581.658 417.798 581.138 417.346 580.662C417.317 580.627 417.279 580.602 417.236 580.589C417.194 580.576 417.149 580.576 417.108 580.59C417.067 580.604 417.031 580.63 417.006 580.665C416.981 580.701 416.968 580.743 416.968 580.787L417.398 581.939C415.155 582.342 413.061 583.071 410.78 583.079L410.835 582.24ZM454.306 180.962C454.281 180.68 454.176 180.409 454.005 180.179C453.834 179.948 453.604 179.77 453.341 179.663C451.142 178.527 449.082 177.112 446.988 175.814C443.211 173.476 439.319 171.402 435.392 169.394C428.694 165.942 421.835 162.841 414.844 160.105C411.852 158.945 408.841 157.825 405.793 156.845C402.533 155.794 399.203 154.994 395.938 153.958C392.804 152.96 389.589 152.421 386.43 151.579C383.777 150.872 381.018 150.758 378.405 149.793C377.855 149.645 377.292 149.57 376.729 149.569C376.176 149.52 375.594 149.323 375.1 149.462C375.1 149.574 375.125 149.687 375.171 149.791C375.218 149.896 375.286 149.99 375.37 150.067C375.455 150.145 375.554 150.204 375.661 150.24C375.769 150.277 375.881 150.29 375.992 150.278C377.722 150.468 379.435 150.847 381.099 151.41C385.019 152.603 389.021 153.321 392.954 154.396C395.055 154.971 397.252 155.354 399.254 156.094C403.767 157.769 408.371 159.127 412.881 160.825C418.944 163.11 424.821 165.837 430.809 168.291C432.229 168.873 433.375 169.914 434.752 170.471C437.794 171.654 440.729 173.124 443.518 174.86C445.611 176.204 447.918 177.09 449.965 178.578C451.283 179.602 452.75 180.407 454.306 180.962ZM385.813 205.852C384.351 205.523 382.94 204.967 381.63 204.206C379.999 203.485 378.273 203.028 376.625 202.353C375.999 202.097 375.263 202.935 374.776 202.007C371.747 202.493 368.859 201.635 365.92 200.762L365.808 199.698L364.705 199.532L364.6 200.324C363.856 200.436 363.904 199.182 363.068 199.429L363.419 200.447C362.057 201.436 362.052 201.441 360.772 200.402C360.521 200.198 360.308 200.122 360.056 200.334C359.656 200.56 359.824 200.991 359.739 201.325C359.05 201.476 358.065 200.604 357.69 201.669C359.291 202.739 361.068 202.584 362.722 203C364.645 203.483 366.535 204.108 368.498 204.471C370.393 204.82 372.3 205.199 374.168 205.629C376.253 206.259 378.368 206.769 380.501 207.154C381.249 207.24 382.123 207.121 382.709 207.487C383.445 207.87 384.249 208.086 385.063 208.12C385.914 208.254 386.771 208.34 387.577 208.441C387.618 206.948 385.356 207.457 385.814 205.853L385.813 205.852ZM301.985 426.825C301.068 426 300.391 426.953 299.526 426.765C298.634 426.607 297.732 426.566 296.84 426.644C293.361 426.831 289.851 426.71 286.351 426.672C283.829 426.645 281.273 426.549 278.795 426.671C276.317 426.793 273.808 426.568 271.348 426.826C269.01 427.071 266.571 426.322 264.316 427.33C264.46 428.969 265.116 429.783 266.779 429.829C269.182 429.894 271.586 429.777 273.985 429.689C275.656 429.627 277.32 429.351 278.99 429.403C282.264 429.4 285.525 429.189 288.755 428.771C292.662 428.396 296.571 428.006 300.484 427.678C300.792 427.684 301.093 427.609 301.356 427.459C301.62 427.309 301.837 427.091 301.985 426.825ZM522.4 452.953C522.042 453.552 521.787 454.21 521.646 454.902C521.632 455.26 521.962 455.544 521.613 456.045C520.161 458.055 518.821 460.148 517.6 462.314C516.996 463.429 516.07 464.377 515.879 465.761C515.372 469.47 514.774 473.162 514.202 476.857C514.149 477.203 514.297 477.599 513.942 477.888C513.446 478.291 513.668 478.93 513.623 479.457C513.585 479.918 513.308 480.443 513.828 481.152C515.609 477.467 517.127 473.649 518.369 469.725C519.591 466.093 520.752 462.436 521.853 458.755C522.349 457.08 523.023 455.495 523.647 453.882C523.731 453.678 523.658 453.401 523.66 453.256L522.4 452.953ZM428.237 289.535C426.661 290.702 424.616 290.595 422.903 291.387C420.801 292.359 418.614 293.147 416.488 294.073C414.675 294.866 412.826 295.552 411.071 296.497C409.267 297.462 407.25 298.011 405.373 298.88C403.431 299.778 401.511 300.773 399.48 301.47C398.328 301.814 397.205 302.239 396.117 302.741C394.922 303.413 393.647 303.94 392.319 304.311C390.974 304.624 390.044 306.083 388.381 305.527C387.979 305.394 387.608 305.908 387.365 306.284C387.243 306.472 387.193 306.924 387.149 306.917C385.532 306.663 384.562 308.032 383.014 308.352C383.441 308.716 383.561 309.024 384.207 308.784C387.168 307.685 390.207 306.778 393.155 305.652C394.19 305.256 395.41 305.127 396.193 304.197C398.75 303.884 400.894 302.474 403.08 301.401C405.33 300.296 407.678 299.351 409.95 298.355C414.974 296.152 419.886 293.682 425.082 291.854C425.903 290.759 427.75 291.216 428.237 289.535ZM494.04 259.61C494.548 258.924 494.852 258.521 495.154 258.116C496.18 259.264 497.037 257.344 498.269 258.241C499.328 259.392 500.298 261.008 501.973 261.97C502.747 262.414 502.912 262.182 503.087 261.536C502.193 260.482 501.515 259.202 500.177 258.875C499.945 258.197 500.78 258.097 500.531 257.515C499.403 256.128 498.481 254.339 497.037 253.397C495.442 252.358 494.566 250.865 493.385 249.572C492.159 248.226 491.066 246.759 489.915 245.344C489.612 244.972 489.324 244.587 488.999 244.235C488.855 244.13 488.695 244.052 488.526 244.005C488.181 244.272 487.727 244.425 487.59 244.91C489.154 245.829 489.066 245.841 489.035 247.355C489.019 248.154 488.352 247.86 488.156 248.159C487.577 249.04 488.713 249.633 488.684 250.381C488.756 251.005 487.597 250.75 487.994 251.646C488.921 251.41 489.419 250.018 490.692 250.815C491.123 252.438 491.123 252.438 492.94 252.271C493.508 251.872 492.286 251.392 492.941 250.884C493.317 251.497 494.338 251.727 493.448 252.715C493.182 253.01 493.691 254.018 493.785 254.413C494.169 254.961 494.696 254.542 494.771 255.07C494.892 255.939 494.312 256.494 494.109 257.153C493.533 257.195 493.016 256.868 492.578 257.108C492.735 258.192 493.865 257.594 494.1 258.383L494.04 259.61ZM355.16 541.087C356.505 541.256 357.748 541.507 358.987 541.539C360.203 541.57 361.344 542.028 362.569 542.114C364.212 542.226 365.832 541.951 367.475 542.206C370.735 542.599 374.009 542.759 377.272 542.685C382.36 542.563 387.42 542.103 392.42 541.309C393.579 541.167 394.707 540.836 395.85 540.593C382.379 540.316 369.037 541.568 355.586 540.494C355.494 540.486 355.385 540.756 355.16 541.087ZM334.139 286.946C328.79 287.053 323.483 287.638 318.277 288.694C312.019 289.828 305.799 291.148 299.552 292.34C299.238 292.365 298.945 292.49 298.715 292.699C298.485 292.907 298.331 293.187 298.275 293.499C310.116 292.006 321.692 289.664 333.321 287.587C333.627 287.533 333.867 287.167 334.139 286.946ZM349.938 178.843C352.428 180.385 355.227 180.086 357.783 181C360.436 181.891 363.134 182.619 365.861 183.179C368.657 183.813 371.481 184.298 374.274 184.845C374.246 184.582 374.133 184.331 373.954 184.132C373.774 183.934 373.537 183.797 373.28 183.743C371.114 183.506 369.488 181.388 367.169 181.755C366.139 180.524 364.683 180.775 363.378 180.443C362.516 180.263 361.728 179.793 361.146 179.11C360.038 179.328 358.873 179.163 357.837 178.64C356.948 178.188 355.778 178.481 354.892 177.768C354.194 179.291 354.013 179.288 352.087 177.876C351.861 178.145 352.165 178.622 351.51 178.931L349.938 178.843ZM356.764 204.512C361.142 206.633 372.832 209.544 376.607 208.164C375.323 207.7 374.386 206.764 372.99 207.377C372.48 207.599 371.695 207.147 371.062 207.208C370.153 207.295 370.112 206.109 369.217 206.106C368.288 206.102 367.261 205.468 366.432 205.67C365.296 205.947 364.585 205.024 363.602 205.016C362.677 205.118 361.731 204.983 360.851 204.623C359.976 204.098 358.904 204.833 358.287 203.956C357.633 203.028 356.561 204.277 355.995 203.293C354.531 203.222 353.224 202.293 351.73 202.328C351.197 202.343 350.848 202.416 350.791 203.066C351.741 203.948 353.031 204.036 354.075 204.382C354.43 204.967 353.924 205.689 354.737 205.941C354.801 205.946 354.926 205.995 354.979 205.953C355.556 205.501 356.12 205.035 356.764 204.512ZM215.403 404.512C214.879 403.919 215.291 403.227 214.461 402.699C213.669 402.311 212.844 402.003 211.999 401.779C211.493 401.579 210.95 401.515 210.424 401.595C209.899 401.674 209.409 401.894 209.006 402.231C208.299 402.751 208.064 401.975 207.496 401.925C206.075 402.99 204.761 404.18 204.863 406.661C208.409 405.803 212.061 406.526 215.403 404.512ZM198.325 227.761C197.137 228.704 196.058 229.778 195.109 230.965C193.61 232.763 192.417 234.762 191.005 236.597C188.854 239.394 187.414 242.613 185.69 245.656C185.049 246.665 184.515 247.743 184.099 248.873C183.767 250.036 183.294 251.148 182.692 252.184C182.622 252.297 182.408 252.688 183.006 252.866C183.399 252.463 183.731 252.004 183.995 251.503C185.085 248.993 186.618 246.719 187.922 244.324C189.33 241.78 190.879 239.323 192.562 236.963C193.443 235.699 194.302 234.37 195.149 233.107C196.199 231.542 197.636 230.13 198.325 227.761Z" fill="#474747"/>
<path d="M366.246 503.372C282.604 473.895 240.986 407.431 242.345 324.166C243.124 276.392 263.02 236.42 295.869 203.317C329.046 169.884 369.28 147.771 416.374 140.716C436.044 137.77 456.156 137.534 476.092 136.755C483.866 136.452 490.986 139.537 497.39 144.54C505.543 150.839 514.806 155.553 524.697 158.436C546.465 164.886 563.399 178.19 577.564 195.109C587.112 206.509 598.086 216.813 605.722 229.764C629.446 270.01 640.776 313.492 639.71 360.21C639.35 377.804 632.181 393.519 625.264 409.123C621.277 418.114 614.585 426.084 610.16 434.507C606.713 441.053 599.384 444.196 598.289 448.964C596.635 456.172 592.308 459.634 587.871 463.564C546.153 500.531 496.048 512.687 441.834 512.557C422.633 512.51 403.499 511.456 384.58 508.151C377.275 506.875 370.168 504.421 366.246 503.372ZM337.019 244.388C337.932 244.14 339.012 244.186 339.394 243.692C353.745 225.159 373.55 214.776 394.448 205.502C404.827 200.897 413.359 192.893 423.859 184.632C399.234 184.378 345.416 222.442 337.019 244.388ZM551.021 402.985L488.437 444.722C524.384 430.253 543.896 417.014 551.02 402.988L551.021 402.985ZM355.385 170.033C375.632 161.815 397.316 157.509 416.733 147.031C395.069 151.394 373.972 157.297 355.385 170.033ZM512.087 382.753C502.97 388.693 491.646 391.981 486.73 403.107C496.682 398.222 506.126 392.716 512.087 382.753ZM385.094 259.071C395.45 250.983 407.066 244.491 414.751 233.575C401.865 238.663 393.726 249.255 385.094 259.071ZM532.2 492.101L533.343 493.929C542.066 491.217 550.167 486.807 557.181 480.954C552.975 482.305 549.226 484.545 545.306 486.431C541.018 488.491 536.577 490.222 532.2 492.101ZM344.29 175.133C339.607 176.653 336.141 178.27 333.453 181.315C332.718 182.147 331.78 183.066 332.703 184.14C333.352 184.562 334.109 184.787 334.882 184.787C336.475 180.351 343.869 182.244 344.29 175.133Z" fill="#F3C05E"/>
<path d="M388.087 416.648C389.667 416.419 391.066 414.4 393.108 415.95L392.193 416.96C393.977 417.897 394.616 419.588 394.99 421.247C397.028 423.456 399.073 425.484 400.895 427.702C402.805 430.027 404.502 432.535 406.339 435.027L405.101 436.275C408.833 436.313 410.943 438.647 412.752 441.016L415.581 439.761C415.604 439.41 415.626 439.059 415.662 438.505C414.77 438.27 413.837 438.026 412.64 437.711C413.177 435.205 411.645 433.741 409.796 432.295L408.032 433.394C407.685 430.677 406.338 428.197 404.262 426.457C399.753 422.533 396.704 417.308 393.743 412.116C393.25 411.25 393.304 410.058 392.917 408.037L390.531 411.671L392.871 413.684C390.802 414.289 389.286 414.73 387.773 415.172L385.221 409.404L386.218 408.273C383.863 404.278 384.26 399.541 383.482 394.91L384.766 392.721L387.094 392.87L387.644 390.484C386.309 390.908 385.486 391.168 384.637 391.437C384.375 391.132 384.032 390.735 383.701 390.353C383.779 387.737 386.301 387.525 387.962 385.858C386.889 385.601 386.039 385.397 384.857 385.113C384.443 382.026 386.93 379.846 387.532 377.129C388.568 377.084 389.39 377.047 391.247 376.965C389.772 376.062 388.945 375.557 388.602 375.347L388.899 370.72C389.54 371.149 389.979 371.443 390.927 372.079L390.362 368.823C390.223 369.281 390.248 369.011 390.375 368.806C392.529 365.342 394.522 361.754 396.901 358.459C400.089 353.97 403.971 350.037 408.397 346.814C412.151 344.127 416.415 342.189 420.063 339.271C420.798 338.683 421.819 338.464 422.763 338.052C422.868 338.174 423.096 338.439 423.615 339.044C424.005 338.25 424.584 337.568 425.299 337.06C426.014 336.552 426.843 336.235 427.709 336.137C433.605 335.142 433.611 335.178 435.819 336.392L441.483 334.546L442.662 337.397L444.5 336.374C448.602 337.426 452.39 338.397 456.242 339.385L456.362 342.111C459.857 342.118 461.87 344.675 464.227 347.543L466.029 344.698L468.763 346.7L466.55 347.311C466.851 348.211 466.901 349.49 467.554 350.109C469.734 352.134 472.02 354.036 474.404 355.808C475.004 356.262 475.985 356.195 476.191 356.239C477.705 358.215 478.615 360.355 480.207 361.296C484.554 363.865 486.151 368.37 488.567 372.315C489.198 373.466 489.771 374.65 490.284 375.86C489.816 375.998 489.202 376.182 488.545 376.376C488.639 376.627 488.735 377.094 488.828 377.094C490.274 377.097 491.635 377.213 492.28 379.472L492.083 382.544L496.296 386.561L495.147 389.783C498.631 391.729 499.192 395.715 500.489 399.361L499.39 400.589L502.227 404.047L501.959 408.22C503.748 409.251 505.217 410.405 503.959 412.79L507.079 418.192L513.496 408.231L512.709 406.944L514.175 403.122L515.308 403.195C515.408 402.934 515.637 402.521 515.574 402.471C514.379 401.481 514.9 400.156 515.074 399.042C515.3 397.593 515.972 396.221 516.314 394.783C516.627 393.462 516.442 391.923 517.045 390.789C517.868 389.234 516.518 388.149 516.667 386.672C516.832 385.03 518.056 383.622 517.404 381.68C516.887 380.141 517.382 378.226 517.517 376.485C517.943 371.062 516.828 365.84 515.714 360.602C515.031 357.387 514.762 354.066 513.889 350.913C512.567 345.881 510.957 340.933 509.069 336.093C508.155 333.842 508.517 331.011 506.309 329.297C505.63 328.771 506.481 327.051 504.7 327.169C504.404 327.188 504.109 325.796 503.665 325.165C503.061 324.311 502.261 323.605 501.642 322.761C500.478 321.172 499.384 319.531 497.986 317.515L502.054 317.776C503.052 319.891 503.052 319.891 507.269 322.085L507.437 319.468C504.505 318.137 503.192 314.862 500.666 312.78L502.24 311.454L505.791 313.516C505.795 312.919 506.046 312.095 505.757 311.77C504.936 310.845 503.894 310.124 502.305 308.792C503.814 308.458 504.654 308.272 505.681 308.046L508.26 304.659L509.712 309.253C510.603 309.039 511.638 308.79 512.902 308.487L515.437 312.588L517.077 310.004L519.378 312.801L517.657 315.503C519.262 315.199 520.097 315.04 520.87 314.894L521.852 316.584C521.737 316.601 521.258 316.67 520.387 316.796L523.454 322.168C523.943 321.771 524.326 321.461 524.179 321.579L527.512 324.371L525.986 326.015C526.933 326.652 527.879 327.29 528.847 327.942L528.663 330.821C530.282 333.708 531.942 336.21 533.13 338.928C534.19 341.355 533.064 344.428 535.17 346.914L532.781 348.927L532.796 352.118L534.435 349.078C535.877 352.6 539.12 355.501 536.494 359.735L538.18 361.687L536.987 362.951C538.319 365.121 538.475 367.482 536.518 369.786L538.749 372.712L537.63 375.679C537.753 375.933 538.289 376.528 538.227 377.048C538.157 377.622 537.359 378.078 537.197 378.675C537.04 379.542 536.969 380.421 536.985 381.302C537.011 382.006 536.954 382.71 536.813 383.4C536.618 384.002 536.114 384.503 535.562 385.321C538.595 388.398 534.317 390.825 535.228 394.807L531.477 391.691C530.548 392.585 531.575 394.753 533.934 396.728L532.257 396.981C530.605 398.526 532.58 399.979 532.593 401.57L530.385 403.662L531.37 404.961C530.775 405.087 530.303 405.188 529.495 405.36C528.273 408.78 526.984 412.461 525.517 416.065C525.299 416.705 524.925 417.28 524.43 417.733C523.935 418.187 523.335 418.506 522.687 418.659C522.566 420.114 522.936 421.806 522.269 422.693C518.571 427.609 514.605 432.317 510.773 437.13C510.176 437.883 509.817 438.832 509.29 439.65C508.66 440.628 507.966 441.562 507.217 442.633C507.592 442.783 508.145 443.004 509.079 443.377C508.594 446.048 509.499 449.019 507.479 451.578L509.074 455.264C506.728 458.237 509.209 462.571 506.921 465.51L507.67 469.021C506.832 469.254 506.215 469.426 505.556 469.609C506.575 471.685 505.922 473.412 505.091 475.506C504.306 477.483 504.37 479.8 502.51 481.317C502.705 481.582 502.898 481.845 503.306 482.392L502.166 483.764L502.823 485.371C502.129 487.642 501.568 489.994 500.692 492.217C498.9 496.762 498.296 501.77 495.239 505.847C494.21 507.219 493.816 509.131 493.298 510.847C490.256 520.912 484.486 529.401 478.42 537.733C475.03 542.444 471.048 546.684 466.578 550.344C465.104 551.541 463.433 552.712 462.484 554.292C461.451 556.01 459.575 556.164 458.372 557.554C455.119 561.312 450.544 563.358 446.55 566.143C442.606 568.794 438.488 571.167 434.226 573.244C429.773 575.507 425.294 577.978 420.544 579.293C416.065 580.533 411.771 582.689 407.005 582.87C406.425 582.891 405.851 583.755 405.295 583.731C402.13 583.595 399.239 585.084 396.166 585.262C393.935 585.39 391.677 585.027 389.046 584.858L386.603 581.578L388.431 576.462C389.124 576.35 389.601 576.273 390.114 576.19L390.247 574.116C391.553 573.217 392.675 572.189 393.984 571.615C395.303 570.979 396.745 570.656 398.203 570.669C403.288 570.995 407.593 568.31 412.223 566.995C415.587 566.037 418.844 564.593 422.243 563.596C424.071 563.06 425.704 561.807 427.394 560.811C431.2 558.568 435.236 556.751 438.903 554.238C440.927 552.851 443.28 551.939 445.222 550.457C449.442 547.234 453.641 543.954 457.581 540.39C465.886 532.876 471.914 523.534 477.29 513.76C478.454 511.645 478.952 509.132 479.62 506.759C480.511 503.594 482.643 500.946 483.175 497.636C483.944 492.856 486.441 488.538 486.749 483.605C486.864 481.816 487.656 480.077 488.063 478.298C488.47 476.519 487.761 474.564 489.358 472.902C489.902 472.335 489.45 470.611 489.216 469.468C488.537 466.165 488.76 463.8 490.245 460.681L489.111 458.745C489.544 458.27 489.959 457.769 490.421 457.32C490.789 456.96 491.215 456.66 491.463 456.457L488.7 453.476C486.764 454.268 484.432 455.318 482.034 456.177C479.619 457.04 477.092 457.591 474.698 458.499C472.232 459.474 469.647 460.099 467.016 460.357L465.727 461.511C463.79 461.387 461.734 461.169 459.676 461.153C458.22 461.141 456.688 460.359 455.285 461.776C454.87 462.197 453.432 462.097 452.818 461.686C450.051 459.833 446.908 460.593 443.952 460.102C441.333 459.666 438.74 459.102 436.961 456.465C434.687 456.563 432.437 455.986 430.483 454.804C429.143 453.958 427.105 453.957 426.136 452.874C424.882 451.472 423.293 451.87 422.089 451.192C419.537 449.756 416.151 449.153 415.557 445.099L413.462 446.516L411.447 443.237C410.872 442.967 409.438 442.292 407.21 441.243C405.22 439.286 401.951 437.057 400.08 433.953C398.241 430.899 395.55 428.802 393.615 426.004C391.561 423.038 389.912 419.777 388.087 416.648ZM406.347 372.559C404.655 373.604 403.351 374.408 402.088 375.191L404.487 377.289C403.285 377.788 402.562 378.089 401.733 378.434C402.498 378.861 403.177 379.24 403.813 379.595L403.728 380.93C402.788 381.037 401.829 381.143 400.692 381.272L400.404 385.771C397.247 387.207 396.045 389.157 397.441 390.277C397.862 389.973 398.244 389.512 398.693 389.427C399.107 389.348 399.594 389.673 400.544 389.981C399.462 391.212 398.46 392.095 397.811 393.191C397.442 393.814 397.649 394.789 397.575 395.944L399.597 394.621C402.083 396.99 402.089 396.992 400.593 399.386C400.998 400.374 401.132 401.632 401.792 402.075C402.614 402.626 403.807 402.557 403.247 403.969C402.419 404.419 401.66 404.828 400.508 405.451C402.661 407.351 404.382 408.87 406.101 410.39L404.809 411.709L407.704 413.794L409.152 417.583L410.441 416.669L411.875 423.102L412.917 422.256C415.175 423.336 417.351 424.377 419.979 425.634C418.854 421.42 414.882 420.623 413.124 417.712C411.366 414.802 409.187 412.168 406.982 409.119L409.308 409.268C410.875 411.288 412.415 412.721 413.247 414.498C414.122 416.366 416.228 416.989 416.897 418.799C417.648 420.836 419.661 421.284 420.949 422.612C423.084 424.816 426.564 425.732 427.117 429.281C430.005 429.833 432.561 430.798 434.555 433.117L438.54 433.372L439.117 435.364C440.491 434.47 441.766 433.808 443.113 435.313C444.013 436.302 445.118 437.075 446.347 437.577C447.576 438.079 448.9 438.299 450.224 438.219C452.317 438.172 454.039 439.214 455.95 439.658C457.386 439.992 459.031 439.528 460.136 440.996C460.224 441.113 460.74 440.894 461.056 440.832L461.809 439.045C462.312 439.483 462.87 439.851 463.468 440.139C464.139 440.321 464.837 440.371 465.527 440.286C466.209 440.226 466.879 439.846 467.551 439.857C468.133 439.866 468.813 440.535 469.273 440.376C471.923 439.455 474.639 439.194 477.398 438.827C480.763 438.34 483.948 436.969 486.639 434.851C486.334 430.868 484.5 427.905 484.046 424.365C483.564 420.606 481.255 417.131 480.068 413.423C477.819 406.397 472.963 400.561 471.354 393.251C471.232 392.698 470.433 392.298 469.947 391.833C469.487 391.5 469.079 391.099 468.736 390.644C465.277 384.37 461.069 378.556 456.206 373.337C453.607 370.473 450.585 368.201 447.483 365.97C445.764 364.733 443.58 364.11 442.178 362.65C439.678 360.045 436.36 359.635 433.319 358.876C430.013 358.05 426.438 358.025 422.997 358.149C419.435 358.353 415.989 359.523 413.017 361.538C412.123 362.116 411.777 363.525 410.924 364.236C410.07 364.947 408.907 365.263 407.735 365.819L408.718 367.219L406.554 369.267L406.347 372.559Z" fill="#F47777"/>
<path d="M711.709 285.925C717.148 285.621 719.285 281.373 722.601 279.056C725 277.381 726.933 273.464 730.553 276.418C734.225 279.413 730.672 282.013 729.487 284.689C729.154 285.442 728.952 286.255 728.653 287.152C732.667 288.965 734.817 281.687 738.535 285.194C741.36 287.858 740.138 293.937 741.328 295.064C749.613 302.905 736.8 304.99 738.157 310.629C740.883 311.568 740.743 306.125 743.87 307.48C703.19 363.734 656.355 377.653 598.032 347.799C560.337 328.504 542.915 297.211 543.711 256.209C544.269 227.343 561.402 206.6 584.006 190.245C586.598 188.368 590.172 185.954 593.228 189.662C598.272 195.781 608.799 198.804 605.023 210.061C599.912 225.304 592.159 239.582 588.403 255.311C584.529 271.545 584.221 287.664 590.43 303.498C591.732 306.819 593.518 309.778 596.94 311.162C621.3 321.015 645.309 324.097 668.242 307.285C680.493 298.191 691.518 287.553 701.043 275.634C704.396 271.497 708.286 268.157 713.615 267.117C715.276 266.768 717.009 267.058 718.466 267.929C720.237 269.272 718.488 270.894 717.873 272.441C716.134 276.806 712.313 280.263 711.709 285.925ZM688.381 307.248C681.025 312.429 673.669 317.609 666.314 322.791C676.043 320.858 683.073 315.229 688.381 307.248Z" fill="#8E6AF4"/>
<path d="M188.525 250.797C192.054 249.135 193.527 249.909 193.461 253.887C193.353 260.398 192.553 266.879 190.157 273.015C189.54 274.595 190.62 275.443 190.734 276.669C190.986 279.377 190.685 282.082 190.866 284.798C191.461 293.738 197.484 297.555 204.021 301.155C217.71 308.693 230.808 305.305 243.941 298.354C253.629 293.226 261.273 285.509 269.242 278.164C278.021 270.071 287.291 262.686 297.595 256.814C315.006 246.893 334.444 250.592 348 266.045C354.967 273.987 360.146 283.125 364.027 292.909C368.17 303.354 375.998 307.158 386.022 307.507C399.491 307.978 409.497 301.06 417.578 290.303C423.773 282.056 428.68 272.963 434.245 264.307C446.313 245.536 459.851 241.98 480.106 244.962C487.53 246.054 491.628 250.928 494.691 257.2C497.436 262.825 499.983 268.558 502.615 274.244C503.212 275.534 503.751 276.868 505.032 277.625C515.047 283.549 525.168 289.268 536.947 290.792C549.074 292.362 564.491 284.862 570.329 270.646C574.674 260.064 579.186 249.552 583.6 238.999C584.255 237.432 584.953 235.858 586.238 234.787C586.821 234.268 587.538 233.937 588.296 233.839C589.054 233.74 589.818 233.878 590.488 234.234C592.001 234.939 591.886 235.857 591.246 237.1C591.117 237.309 591.071 237.56 591.117 237.799C591.164 238.038 591.299 238.247 591.495 238.381C596.367 241.547 595.183 246.555 594.291 250.966C592.3 260.814 587.71 269.807 584.137 279.13C582.542 283.531 580.626 287.808 578.406 291.924C573.27 301.058 565.762 306.727 555.546 309.553C557.322 307.485 559.919 307.852 561.331 306C556.867 307.262 552.447 308.614 547.874 309.436C548.281 310.611 549.603 309.277 549.983 310.899C545.978 311.21 542.04 312.142 538.487 309.602C537.897 309.18 537.674 309.389 537.117 309.473C533.497 310.008 530.283 308.356 526.956 307.384C525.581 306.984 525.267 305.718 526.024 304.014C523.566 306.312 521.565 305.276 519.399 304.07C516.067 302.214 512.559 300.69 509.2 298.881C501.666 294.821 496.565 288.338 492.759 280.692C490.654 276.462 488.764 272.11 486.906 267.752C486.073 265.799 484.723 264.902 482.766 264.442C468.95 261.198 458.422 265.203 449.793 277.028C444.548 284.216 440.426 292.136 435.611 299.602C430.028 308.259 423.836 316.301 414.506 320.989C410.845 322.829 406.87 323.486 402.959 324.482C397.457 325.972 391.71 325.992 386.266 324.54C370.236 320.312 358.457 310.929 351.849 295.008C349.546 289.457 346.606 284.2 343.952 278.814C339.327 269.432 328.329 266.583 319.544 268.567C309.516 270.829 301.273 276.72 293.346 283.011C284.495 290.035 276.318 298.001 267.295 304.757C256.533 312.816 244.458 318.321 231.112 318.914C224.429 319.211 217.732 318.27 211.41 315.071C207.886 313.289 204.063 311.925 200.439 310.166C195.113 307.566 190.308 303.985 186.253 299.597C178.726 291.522 175.839 281.654 177.811 270.317C178.827 264.476 180.96 259.028 183.439 253.68C184.241 252.064 185.284 250.583 186.529 249.294C187.062 248.707 187.881 247.556 188.862 248.475C189.688 249.249 187.638 249.643 188.525 250.797ZM304.986 259.044C303.136 258.534 302.311 259 301.484 259.464C294.167 263.568 287.153 268.083 280.705 273.643C271.996 281.151 263.755 289.244 254.559 296.162C253.026 297.315 250.675 297.592 249.624 300.382C253.242 298.874 256.6 296.753 259.56 294.108C265.949 288.399 272.257 282.58 278.728 276.967C286.651 270.095 295.305 264.32 304.986 259.044ZM464.45 249.567C462.079 248.616 451.816 250.737 450.618 252.305C450.511 252.435 450.431 252.585 450.384 252.747C450.337 252.909 450.324 253.079 450.346 253.245C450.7 254.088 451.493 253.969 452.141 253.753C456.186 252.409 460.219 251.012 464.45 249.567ZM541.388 295.953C545.253 296.835 548.835 296.069 552.245 294.327C553.144 293.869 555.206 293.823 554.319 292.21C553.496 290.716 552.777 292.906 551.885 293.1C551.426 293.17 550.974 293.29 550.537 293.458C547.596 294.803 544.261 294.438 541.388 295.953ZM398.547 310.243C401.354 310.918 407.554 308.448 409.109 306.169C409.387 305.76 409.703 305.277 409.247 304.957C408.935 304.737 408.14 304.669 407.981 304.874C405.58 307.984 401.71 308.302 398.547 310.243Z" fill="#62C6BA"/>
</svg>
